<?xml version="1.0" encoding="UTF-8"?>
<svg width="19px" height="13px" viewBox="0 0 19 13" version="1.1" xmlns="http://www.w3.org/2000/svg" xmlns:xlink="http://www.w3.org/1999/xlink">
    <!-- Generator: Sketch 50.2 (55047) - http://www.bohemiancoding.com/sketch -->
    <title>behance</title>
    <desc>Created with Sketch.</desc>
    <defs></defs>
    <g id="Page-1" stroke="none" stroke-width="1" fill="none" fill-rule="evenodd">
        <g id="Home-v2" transform="translate(-1278.000000, -426.000000)" fill="#4630EB" fill-rule="nonzero">
            <g id="social-media" transform="translate(1277.000000, 371.000000)">
                <g id="behance" transform="translate(1.000000, 55.000000)">
                    <path d="M7.52159706,5.66701826 C7.52159706,5.66701826 9.2837998,5.53419752 9.2837998,3.32051851 C9.2837998,1.1068395 7.82246094,0 6.01727765,0 L0,0 L0,12.440876 L6.01727765,12.440876 C6.01727765,12.440876 9.71360535,12.5736968 9.71360535,8.76616886 C9.71360535,8.76616886 9.84254701,5.66701826 7.52159706,5.66701826 Z M2.66479439,2.21367901 L6.01727765,2.21367901 C6.01727765,2.21367901 6.83390819,2.21367901 6.83390819,3.49761283 C6.83390819,4.78154665 6.36112208,4.95864097 5.80237487,4.95864097 L2.62181383,4.95864097 C2.66479439,4.95864097 2.66479439,2.21367901 2.66479439,2.21367901 Z M5.84535543,10.227197 L2.66479439,10.227197 L2.66479439,6.9066785 L6.01727765,6.9066785 C6.01727765,6.9066785 7.22073318,6.9066785 7.22073318,8.63334812 C7.22073318,10.0501027 6.31814153,10.1829234 5.84535543,10.227197 Z M14.6133886,3.14342419 C10.1434109,3.14342419 10.1434109,7.92497084 10.1434109,7.92497084 C10.1434109,7.92497084 9.84254701,12.6622439 14.6133886,12.6622439 C14.6133886,12.6622439 18.5675996,12.9278854 18.5675996,9.34172541 L16.5475135,9.34172541 C16.5475135,9.34172541 16.6334746,10.6699328 14.6993497,10.6699328 C14.6993497,10.6699328 12.6792636,10.8027536 12.6792636,8.50052738 L18.6535607,8.50052738 C18.6105802,8.54480096 19.298269,3.14342419 14.6133886,3.14342419 Z M16.4185719,6.9066785 L12.6362831,6.9066785 C12.6362831,6.9066785 12.8941664,5.00291455 14.6563691,5.00291455 C16.4185719,5.00291455 16.4185719,6.9066785 16.4185719,6.9066785 Z M16.891358,0.708377282 L12.1205164,0.708377282 L12.1205164,2.25795259 L16.891358,2.25795259 L16.891358,0.708377282 Z" id="XMLID_7_"></path>
                </g>
            </g>
        </g>
    </g>
</svg>