<?xml version="1.0" encoding="UTF-8"?>
<svg width="40px" height="39px" viewBox="0 0 40 39" version="1.1" xmlns="http://www.w3.org/2000/svg" xmlns:xlink="http://www.w3.org/1999/xlink">
    <!-- Generator: Sketch 50.2 (55047) - http://www.bohemiancoding.com/sketch -->
    <title>design</title>
    <desc>Created with Sketch.</desc>
    <defs></defs>
    <g id="Page-1" stroke="none" stroke-width="1" fill="none" fill-rule="evenodd">
        <g id="Home-v2" transform="translate(-931.000000, -3003.000000)" fill="#4630EB" fill-rule="nonzero">
            <g id="How-I-help-the-world" transform="translate(135.000000, 2260.000000)">
                <g id="My-process" transform="translate(0.000000, 704.000000)">
                    <g id="Group-4" transform="translate(60.000000, 38.000000)">
                        <g id="design" transform="translate(736.000000, 1.000000)">
                            <path d="M38.125,0 L1.875,0 C0.839453125,0 0,0.839453125 0,1.875 L0,29.375 C0,29.7201563 0.27984375,30 0.625,30 L14.8625,30 L13.8625,35 L12.5,35 C12.1548437,35 11.875,35.2798437 11.875,35.625 L11.875,37.5 L10.625,37.5 L10.625,38.75 L29.375,38.75 L29.375,37.5 L28.125,37.5 L28.125,35.625 C28.125,35.2798437 27.8451563,35 27.5,35 L26.1364844,35 L25.1364844,30 L39.375,30 C39.7201563,30 40,29.7201563 40,29.375 L40,1.875 C40,0.839453125 39.1605469,0 38.125,0 Z M25.625,36.25 L26.875,36.25 L26.875,37.5 L13.125,37.5 L13.125,36.25 L14.375,36.25 L25.625,36.25 Z M15.1375,35 L16.1365625,30 L23.8625,30 L24.8625,35 L15.1375,35 Z M38.75,28.75 L1.25,28.75 L1.25,23.125 L10,23.125 L13.75,23.125 L17.5,23.125 L21.25,23.125 L25,23.125 L30,23.125 L38.75,23.125 L38.75,28.75 Z M30,5.625 L25,5.625 C24.6548437,5.625 24.375,5.90484375 24.375,6.25 L24.375,11.875 L25.625,11.875 L25.625,6.875 L29.375,6.875 L29.375,9.375 L26.875,9.375 L26.875,10.625 L29.375,10.625 L29.375,13.75 L26.875,13.75 L26.875,15 L29.375,15 L29.375,18.125 L26.875,18.125 L26.875,19.375 L29.375,19.375 L29.375,21.875 L25.625,21.875 L25.625,16.875 L24.375,16.875 L24.375,21.875 L21.875,21.875 L21.875,18.75 C21.875,16.199375 24.9725,15.63875 25.1025,15.61625 C25.1795313,15.6033594 25.2534375,15.5761719 25.3204687,15.5360156 C25.6166406,15.3586719 25.7129688,14.9748438 25.535625,14.67875 L19.910625,5.30375 C19.8653125,5.23765625 19.8082031,5.18054688 19.7421094,5.13523438 C19.4463281,4.9325 19.0421094,5.00789063 18.839375,5.30375 L13.214375,14.67875 C13.1744531,14.7453125 13.1472656,14.81875 13.1342969,14.8953125 C13.0764063,15.235625 13.3053125,15.5583594 13.645625,15.61625 C13.7775,15.63875 16.875,16.199375 16.875,18.75 L16.875,21.875 L14.375,21.875 L14.375,16.875 L13.125,16.875 L13.125,21.875 L12.5,21.875 L12.5,10.625 L13.125,10.625 L13.125,11.875 L14.375,11.875 L14.375,10 C14.3751563,9.9153125 14.3579688,9.83148437 14.324375,9.75375 L12.449375,5.37875 C12.3861719,5.23140625 12.26875,5.11398438 12.1214062,5.05078125 C11.8042188,4.9146875 11.4367187,5.0615625 11.300625,5.37875 L9.425625,9.75375 C9.39203125,9.83148438 9.37484375,9.9153125 9.375,10 L9.375,21.875 L4.375,21.875 L4.375,4.375 L35.625,4.375 L35.625,21.875 L30.625,21.875 L30.625,6.25 C30.625,5.90484375 30.3451563,5.625 30,5.625 Z M18.125,20 L18.125,19.375 L20.625,19.375 L20.625,20 L18.125,20 Z M20.625,21.25 L20.625,21.875 L18.125,21.875 L18.125,21.25 L20.625,21.25 Z M18.079375,18.125 C17.78,16.1375 16.078125,15.0625 14.716875,14.603125 L18.75,7.88164063 L18.75,13.125 L20,13.125 L20,7.88164063 L24.033125,14.603125 C22.670625,15.059375 20.97,16.1375 20.670625,18.125 L18.079375,18.125 Z M10.9464844,9.375 L11.875,7.20875 L12.8035156,9.375 L10.9464844,9.375 Z M11.25,10.625 L11.25,21.875 L10.625,21.875 L10.625,10.625 L11.25,10.625 Z M38.75,21.875 L36.875,21.875 L36.875,3.75 C36.875,3.40484375 36.5951563,3.125 36.25,3.125 L3.75,3.125 C3.40484375,3.125 3.125,3.40484375 3.125,3.75 L3.125,21.875 L1.25,21.875 L1.25,1.875 C1.25,1.52984375 1.52984375,1.25 1.875,1.25 L38.125,1.25 C38.4701562,1.25 38.75,1.52984375 38.75,1.875 L38.75,21.875 Z" id="Shape"></path>
                            <path d="M20,23.75 C18.9644531,23.75 18.125,24.5894531 18.125,25.625 C18.125,26.6605469 18.9644531,27.5 20,27.5 C21.0355469,27.5 21.875,26.6605469 21.875,25.625 C21.875,24.5894531 21.0355469,23.75 20,23.75 Z M20,26.25 C19.6548437,26.25 19.375,25.9701563 19.375,25.625 C19.375,25.2798437 19.6548437,25 20,25 C20.3451563,25 20.625,25.2798437 20.625,25.625 C20.625,25.9701563 20.3451563,26.25 20,26.25 Z" id="Shape"></path>
                        </g>
                    </g>
                </g>
            </g>
        </g>
    </g>
</svg>