<?xml version="1.0" encoding="UTF-8"?>
<svg width="20px" height="20px" viewBox="0 0 20 20" version="1.1" xmlns="http://www.w3.org/2000/svg" xmlns:xlink="http://www.w3.org/1999/xlink">
    <!-- Generator: Sketch 50.2 (55047) - http://www.bohemiancoding.com/sketch -->
    <title>dribbble</title>
    <desc>Created with Sketch.</desc>
    <defs></defs>
    <g id="Page-1" stroke="none" stroke-width="1" fill="none" fill-rule="evenodd">
        <g id="Home-v2" transform="translate(-1277.000000, -482.000000)" fill="#4630EB" fill-rule="nonzero">
            <g id="social-media" transform="translate(1277.000000, 371.000000)">
                <path d="M10,131 C4.49275362,131 0,126.507246 0,121 C0,115.492754 4.49275362,111 10,111 C15.5072464,111 20,115.492754 20,121 C20,126.507246 15.5072464,131 10,131 Z M18.6666667,122.154695 C18.3757576,122.061272 16,121.407309 13.3333333,121.781002 C14.4484848,124.723835 14.8848485,127.152839 14.9818182,127.666667 C16.9212121,126.452165 18.2787879,124.443565 18.6666667,122.154695 Z M13.3333333,129.012407 C13.1872659,128.26475 12.7003745,125.573183 11.4831461,122.333333 C11.4831461,122.333333 11.4344569,122.333333 11.4344569,122.333333 C6.56554307,124.077868 4.86142322,127.517092 4.66666667,127.816155 C6.12734082,128.962564 7.97752809,129.660377 9.92509363,129.660377 C11.1423221,129.710221 12.3108614,129.461002 13.3333333,129.012407 Z M3.44491861,127 C3.6362232,126.655481 5.93187821,122.718121 10.3318836,121.241611 C10.4275359,121.192394 10.5710144,121.192394 10.6666667,121.143177 C10.4753621,120.651007 10.2362314,120.158837 9.99710062,119.666667 C5.78839977,120.946309 1.67535121,120.897092 1.34056819,120.897092 C1.34056819,120.995526 1.34056819,121.09396 1.34056819,121.143177 C1.2449159,123.456376 2.10578652,125.474273 3.44491861,127 Z M1.33333333,119 C1.72597137,119 5.30879346,119 9.33333333,117.935484 C7.91002045,115.419355 6.3394683,113.290323 6.14314928,113 C3.73824131,114.16129 1.92229039,116.33871 1.33333333,119 Z M8,112.580247 C8.25157233,112.925926 9.86163522,115.049383 11.3207547,117.666667 C14.490566,116.481481 15.7987421,114.753086 16,114.506173 C14.4402516,113.123457 12.3773585,112.333333 10.1132075,112.333333 C9.35849057,112.333333 8.65408805,112.382716 8,112.580247 Z M16.7482014,115.666667 C16.5563549,115.906907 15.1654676,117.732733 12,119.03003 C12.1918465,119.414414 12.383693,119.846847 12.5755396,120.279279 C12.6235012,120.423423 12.7194245,120.567568 12.7673861,120.711712 C15.5971223,120.375375 18.3788969,120.903904 18.6666667,121 C18.618705,118.933934 17.8992806,117.108108 16.7482014,115.666667 Z" id="dribbble"></path>
            </g>
        </g>
    </g>
</svg>