<?xml version="1.0" encoding="UTF-8"?>
<svg width="40px" height="40px" viewBox="0 0 40 40" version="1.1" xmlns="http://www.w3.org/2000/svg" xmlns:xlink="http://www.w3.org/1999/xlink">
    <!-- Generator: Sketch 50.2 (55047) - http://www.bohemiancoding.com/sketch -->
    <title>flow-chart</title>
    <desc>Created with Sketch.</desc>
    <defs></defs>
    <g id="Page-1" stroke="none" stroke-width="1" fill="none" fill-rule="evenodd">
        <g id="Home-v2" transform="translate(-457.000000, -3002.000000)" fill="#4630EB" fill-rule="nonzero">
            <g id="How-I-help-the-world" transform="translate(135.000000, 2260.000000)">
                <g id="My-process" transform="translate(0.000000, 704.000000)">
                    <g id="Group-4" transform="translate(60.000000, 38.000000)">
                        <g id="flow-chart" transform="translate(262.000000, 0.000000)">
                            <path d="M37.9244906,17.2972973 L35.263368,17.2972973 L35.263368,12.6403326 C35.263368,12.2729314 34.9654886,11.975052 34.5980873,11.975052 L28.0523909,11.975052 L20.6271933,9.5002079 L20.6271933,7.98336798 L25.284158,7.98336798 C26.3864449,7.98336798 27.28,7.08981289 27.28,5.98752599 L27.28,1.995842 C27.28,0.893555094 26.3864449,0 25.284158,0 L14.6396674,0 C13.5373805,0 12.6438254,0.893555094 12.6438254,1.995842 L12.6438254,5.98752599 C12.6438254,7.08981289 13.5373805,7.98336798 14.6396674,7.98336798 L19.296632,7.98336798 L19.296632,9.5002079 L11.768316,12.0096466 C11.4192931,12.1244075 11.2292723,12.5003742 11.3440333,12.8493971 C11.4100624,13.0502287 11.5674844,13.2076507 11.768316,13.2736798 L19.296632,15.7804574 L19.296632,17.2972973 L16.6355094,17.2972973 C15.5332225,17.2972973 14.6396674,18.1908524 14.6396674,19.2931393 L14.6396674,19.95842 L10.6479834,19.95842 L10.6479834,19.2931393 C10.6479834,18.1908524 9.75442827,17.2972973 8.65214137,17.2972973 L1.99933472,17.2972973 C0.897047817,17.2972973 0.00349272349,18.1908524 0.00349272349,19.2931393 L0.00349272349,21.954262 C0.00349272349,23.0565489 0.897047817,23.950104 1.99933472,23.950104 L4.66045738,23.950104 L4.66045738,30.6561331 C2.11434511,31.0200416 0.345363825,33.3790437 0.709272349,35.9251559 C1.07318087,38.4712682 3.43218295,40.2402495 5.97829522,39.876341 C8.02702703,39.5835343 9.6366736,37.9738046 9.92948025,35.9251559 L15.3581705,35.9251559 C15.7255717,38.4707692 18.0870686,40.2365073 20.6326819,39.869106 C23.1782952,39.5017048 24.9440333,37.1402079 24.576632,34.5945946 C24.2092308,32.0489813 21.8477339,30.2832432 19.3021206,30.6506445 C17.2585447,30.9456133 15.6531393,32.5510187 15.3581705,34.5945946 L9.92948025,34.5945946 C9.63293139,32.5548441 8.03076923,30.9526819 5.99101871,30.6561331 L5.99101871,23.950104 L8.65214137,23.950104 C9.75442827,23.950104 10.6479834,23.0565489 10.6479834,21.954262 L10.6479834,21.2889813 L14.6396674,21.2889813 L14.6396674,21.954262 C14.6396674,23.0565489 15.5332225,23.950104 16.6355094,23.950104 L23.288316,23.950104 C24.3906029,23.950104 25.284158,23.0565489 25.284158,21.954262 L25.284158,21.2889813 L29.275842,21.2889813 L29.275842,21.954262 C29.275842,23.0565489 30.1693971,23.950104 31.271684,23.950104 L33.9328067,23.950104 L33.9328067,30.6561331 C31.3871933,31.0235343 29.6214553,33.3850312 29.9888565,35.9306445 C30.3562578,38.4762578 32.7177547,40.2419958 35.263368,39.8745946 C37.8089813,39.5071933 39.5747193,37.1456965 39.2073181,34.6000832 C38.9123493,32.5565073 37.3069439,30.9511019 35.263368,30.6561331 L35.263368,23.950104 L37.9244906,23.950104 C39.0267775,23.950104 39.9203326,23.0565489 39.9203326,21.954262 L39.9203326,19.2931393 C39.9203326,18.1908524 39.0267775,17.2972973 37.9244906,17.2972973 Z M19.9619127,31.9334719 C21.7990021,31.9334719 23.288316,33.4227859 23.288316,35.2598753 C23.288316,37.0969647 21.7990021,38.5862786 19.9619127,38.5862786 C18.1248233,38.5862786 16.6355094,37.0969647 16.6355094,35.2598753 C16.6376715,33.4237006 18.1256549,31.9356341 19.9619127,31.9334719 Z M8.65214137,35.2598753 C8.65214137,37.0969647 7.16282744,38.5862786 5.32573805,38.5862786 C3.48864865,38.5862786 1.99933472,37.0969647 1.99933472,35.2598753 C1.99933472,33.4227859 3.48864865,31.9334719 5.32573805,31.9334719 C7.16191268,31.9356341 8.64989605,33.4237006 8.65214137,35.2598753 Z M9.31742204,21.954262 C9.31742204,22.3216632 9.01954262,22.6195426 8.65214137,22.6195426 L1.99933472,22.6195426 C1.63193347,22.6195426 1.33405405,22.3216632 1.33405405,21.954262 L1.33405405,19.2931393 C1.33405405,18.925738 1.63193347,18.6278586 1.99933472,18.6278586 L8.65214137,18.6278586 C9.01954262,18.6278586 9.31742204,18.925738 9.31742204,19.2931393 L9.31742204,21.954262 Z M14.6396674,6.65280665 C14.2722661,6.65280665 13.9743867,6.35492723 13.9743867,5.98752599 L13.9743867,1.995842 C13.9743867,1.62844075 14.2722661,1.33056133 14.6396674,1.33056133 L25.284158,1.33056133 C25.6515593,1.33056133 25.9494387,1.62844075 25.9494387,1.995842 L25.9494387,5.98752599 C25.9494387,6.35492723 25.6515593,6.65280665 25.284158,6.65280665 L14.6396674,6.65280665 Z M14.0821622,12.6403326 L19.9619127,10.6804158 L25.8416632,12.6403326 L19.9619127,14.6002495 L14.0821622,12.6403326 Z M23.9535967,21.954262 C23.9535967,22.3216632 23.6557173,22.6195426 23.288316,22.6195426 L16.6355094,22.6195426 C16.2681081,22.6195426 15.9702287,22.3216632 15.9702287,21.954262 L15.9702287,19.2931393 C15.9702287,18.925738 16.2681081,18.6278586 16.6355094,18.6278586 L23.288316,18.6278586 C23.6557173,18.6278586 23.9535967,18.925738 23.9535967,19.2931393 L23.9535967,21.954262 Z M29.275842,19.2931393 L29.275842,19.95842 L25.284158,19.95842 L25.284158,19.2931393 C25.284158,18.1908524 24.3906029,17.2972973 23.288316,17.2972973 L20.6271933,17.2972973 L20.6271933,15.7804574 L28.0523909,13.3056133 L33.9328067,13.3056133 L33.9328067,17.2972973 L31.271684,17.2972973 C30.1693971,17.2972973 29.275842,18.1908524 29.275842,19.2931393 Z M37.9244906,35.2598753 C37.9244906,37.0969647 36.4351767,38.5862786 34.5980873,38.5862786 C32.7609979,38.5862786 31.271684,37.0969647 31.271684,35.2598753 C31.271684,33.4227859 32.7609979,31.9334719 34.5980873,31.9334719 C36.434262,31.9356341 37.9222453,33.4237006 37.9244906,35.2598753 Z M38.5897713,21.954262 C38.5897713,22.3216632 38.2918919,22.6195426 37.9244906,22.6195426 L31.271684,22.6195426 C30.9042827,22.6195426 30.6064033,22.3216632 30.6064033,21.954262 L30.6064033,19.2931393 C30.6064033,18.925738 30.9042827,18.6278586 31.271684,18.6278586 L37.9244906,18.6278586 C38.2918919,18.6278586 38.5897713,18.925738 38.5897713,19.2931393 L38.5897713,21.954262 Z" id="Shape"></path>
                        </g>
                    </g>
                </g>
            </g>
        </g>
    </g>
</svg>