<?xml version="1.0" encoding="UTF-8"?>
<svg width="16px" height="16px" viewBox="0 0 16 16" version="1.1" xmlns="http://www.w3.org/2000/svg" xmlns:xlink="http://www.w3.org/1999/xlink">
    <!-- Generator: Sketch 52.2 (67145) - http://www.bohemiancoding.com/sketch -->
    <title>instagram-logo</title>
    <desc>Created with Sketch.</desc>
    <g id="Page-1" stroke="none" stroke-width="1" fill="none" fill-rule="evenodd">
        <g id="Home-v2-Copy" transform="translate(-1241.000000, -5204.000000)" fill="#4630EB">
            <g id="about-me" transform="translate(0.000000, 4375.000000)">
                <g id="social-media" transform="translate(1077.000000, 826.000000)">
                    <g id="instagram-logo" transform="translate(164.000000, 3.000000)">
                        <path d="M11.5844838,0 L4.41532692,0 C1.98071713,0 0,1.98081177 0,4.41542156 L0,11.5845784 C0,14.0192829 1.98071713,16 4.41532692,16 L11.5844838,16 C14.0192829,16 16,14.0191882 16,11.5845784 L16,4.41542156 C16.0000946,1.98081177 14.0192829,0 11.5844838,0 Z M14.5804971,11.5845784 C14.5804971,13.2365168 13.2365168,14.5804025 11.5845784,14.5804025 L4.41532692,14.5804025 C2.76348322,14.5804971 1.41959754,13.2365168 1.41959754,11.5845784 L1.41959754,4.41542156 C1.41959754,2.76357786 2.76348322,1.41959754 4.41532692,1.41959754 L11.5844838,1.41959754 C13.2364221,1.41959754 14.5804025,2.76357786 14.5804025,4.41542156 L14.5804025,11.5845784 L14.5804971,11.5845784 Z" id="Shape" fill-rule="nonzero"></path>
                        <path d="M8,3.80952381 C5.68933663,3.80952381 3.80952381,5.68937978 3.80952381,8.0000962 C3.80952381,10.3107164 5.68933663,12.1904762 8,12.1904762 C10.3106634,12.1904762 12.1904762,10.3107164 12.1904762,8.0000962 C12.1904762,5.68937978 10.3106634,3.80952381 8,3.80952381 Z M8,10.7474448 C6.48504902,10.7474448 5.25242588,9.51498576 5.25242588,8 C5.25242588,6.48491805 6.48495283,5.25236281 8,5.25236281 C9.51504717,5.25236281 10.7475741,6.48491805 10.7475741,8 C10.7475741,9.51498576 9.51495098,10.7474448 8,10.7474448 Z" id="Shape" fill-rule="nonzero"></path>
                        <path d="M12.3809524,2.66666667 C12.1307359,2.66666667 11.8849351,2.76796537 11.7082251,2.94545455 C11.5306494,3.12207792 11.4285714,3.36796537 11.4285714,3.61904762 C11.4285714,3.86935065 11.5307359,4.11515152 11.7082251,4.29264069 C11.8848485,4.46926407 12.1307359,4.57142857 12.3809524,4.57142857 C12.6320346,4.57142857 12.8770563,4.46926407 13.0545455,4.29264069 C13.2320346,4.11515152 13.3333333,3.86926407 13.3333333,3.61904762 C13.3333333,3.36796537 13.2320346,3.12207792 13.0545455,2.94545455 C12.8779221,2.76796537 12.6320346,2.66666667 12.3809524,2.66666667 Z" id="Path"></path>
                    </g>
                </g>
            </g>
        </g>
    </g>
</svg>