<?xml version="1.0" encoding="UTF-8"?>
<svg width="16px" height="16px" viewBox="0 0 16 16" version="1.1" xmlns="http://www.w3.org/2000/svg" xmlns:xlink="http://www.w3.org/1999/xlink">
    <!-- Generator: Sketch 50.2 (55047) - http://www.bohemiancoding.com/sketch -->
    <title>linkedin</title>
    <desc>Created with Sketch.</desc>
    <defs></defs>
    <g id="Page-1" stroke="none" stroke-width="1" fill="none" fill-rule="evenodd">
        <g id="Home-v2" transform="translate(-1279.000000, -544.000000)" fill="#4630EB" fill-rule="nonzero">
            <g id="social-media" transform="translate(1277.000000, 371.000000)">
                <g id="linkedin" transform="translate(2.000000, 173.000000)">
                    <path d="M14.7881206,0 L1.17984223,0 C0.528222738,0 7.42459397e-05,0.512037123 7.42459397e-05,1.14401856 L7.42459397e-05,14.8227564 C7.42459397e-05,15.4547749 0.528408353,15.9672575 1.17984223,15.9672575 L14.7881206,15.9672575 C15.4395916,15.9672575 15.9671462,15.4544408 15.9671462,14.8227564 L15.9671462,1.14401856 C15.9671462,0.512222738 15.4395916,0 14.7881206,0 Z M4.84083527,13.3656798 L2.42832483,13.3656798 L2.42832483,6.15665893 L4.84083527,6.15665893 L4.84083527,13.3656798 Z M3.63482135,5.17178654 L3.61859861,5.17178654 C2.80957773,5.17178654 2.28514153,4.6185058 2.28514153,3.92582831 C2.28514153,3.21919258 2.82498376,2.68090951 3.65004176,2.68090951 C4.47517401,2.68090951 4.98271926,3.21904408 4.99875638,3.92582831 C4.99875638,4.61865429 4.47535963,5.17178654 3.63482135,5.17178654 Z M13.5372251,13.3656798 L11.1254942,13.3656798 L11.1254942,9.50860325 C11.1254942,8.53943387 10.7760557,7.87812529 9.90388863,7.87812529 C9.23667749,7.87812529 8.84061253,8.32426914 8.66669142,8.75500696 C8.60224594,8.90884455 8.58628306,9.12400928 8.58628306,9.33887703 L8.58628306,13.3655313 L6.17499768,13.3655313 C6.17499768,13.3655313 6.2065522,6.83266821 6.17499768,6.15654756 L8.58665429,6.15654756 L8.58665429,7.17858005 C8.90680278,6.68748028 9.47890487,5.98693271 10.7596102,5.98693271 C12.3469884,5.98693271 13.5372251,7.01668677 13.5372251,9.232 L13.5372251,13.3656798 Z M8.57106265,7.24418475 C8.58290265,7.22477142 8.59943598,7.20141142 8.61586265,7.17869142 L8.61586265,7.24418475 L8.57106265,7.24418475 Z" id="LinkedIn__x28_alt_x29_"></path>
                </g>
            </g>
        </g>
    </g>
</svg>