<?xml version="1.0" encoding="UTF-8"?>
<svg width="186px" height="18px" viewBox="0 0 186 18" version="1.1" xmlns="http://www.w3.org/2000/svg" xmlns:xlink="http://www.w3.org/1999/xlink">
    <!-- Generator: Sketch 52.2 (67145) - http://www.bohemiancoding.com/sketch -->
    <title>logo</title>
    <desc>Created with Sketch.</desc>
    <g id="Page-1" stroke="none" stroke-width="1" fill="none" fill-rule="evenodd">
        <g id="logo" fill="#000000" fill-rule="nonzero">
            <path d="M9.49411852,5.70398128 C9.45779586,5.47393777 9.3765991,5.22097862 9.24863944,4.94586537 C9.12710217,4.68456023 8.95581209,4.44291888 8.73244661,4.21955339 C8.51545079,4.00255757 8.23918632,3.82145086 7.90006897,3.67701199 C7.5700828,3.53646232 7.16681421,3.464 6.688,3.464 C6.30405993,3.464 5.95792474,3.52064031 5.64735973,3.63244371 C5.33731068,3.74406137 5.0719269,3.89658078 4.84807597,4.09018159 C4.62976384,4.27899207 4.46398583,4.49712104 4.34736056,4.74786537 C4.23184667,4.99622024 4.174,5.26520724 4.174,5.56 C4.174,6.00187508 4.30267581,6.3683214 4.56353845,6.68022242 C4.8248081,6.99261008 5.22584048,7.21376764 5.78202344,7.33737025 L8.11762566,7.84416579 C9.51698795,8.15862923 10.6091377,8.7347082 11.3801659,9.57878118 C12.1625141,10.4352467 12.556,11.4873036 12.556,12.71 C12.556,13.3819857 12.4163682,14.0308627 12.1384091,14.652183 C11.8605321,15.2733199 11.4599144,15.8211033 10.9397597,16.2924935 C10.4238152,16.7600682 9.8066087,17.1327968 9.09122316,17.4110023 C8.37080001,17.6911669 7.56160151,17.83 6.666,17.83 C5.66690563,17.83 4.78675788,17.6800197 4.02730464,17.3762383 C3.27595202,17.0756972 2.63712529,16.6844159 2.11385995,16.2014017 C1.59148583,15.7192102 1.18301637,15.1732362 0.891238464,14.5653655 C0.604805442,13.96863 0.420656068,13.3641397 0.340272853,12.7532273 L0.285738819,12.3387686 L3.34009131,11.3639753 L3.4015186,11.9782481 C3.4406083,12.3691452 3.53477271,12.7425558 3.68428993,13.1000969 C3.82702567,13.4414215 4.03091509,13.7410771 4.29836974,14.0023119 C4.56655833,14.2642635 4.89344025,14.4748509 5.28261166,14.6343474 C5.66652507,14.7916889 6.11947945,14.872 6.644,14.872 C7.60088283,14.872 8.28578132,14.6655922 8.7176764,14.2751118 C9.14950286,13.8846933 9.356,13.4320969 9.356,12.886 C9.356,12.4493374 9.20879615,12.0615118 8.90349244,11.7033671 C8.60167352,11.3493102 8.11439333,11.0965336 7.41758437,10.9545445 L5.19285507,10.469942 C3.98852098,10.2005514 2.99024977,9.67535656 2.20944661,8.89455339 C1.40000609,8.08511286 0.996,7.01470497 0.996,5.714 C0.996,5.02394404 1.14444736,4.36417803 1.44013108,3.73995683 C1.7317669,3.12428121 2.13329129,2.58080375 2.64234526,2.11215089 C3.14925728,1.64546999 3.74660078,1.27263143 4.43152262,0.993884163 C5.12289703,0.712510859 5.86158269,0.572 6.644,0.572 C7.58225314,0.572 8.39439561,0.70273513 9.07995848,0.96889483 C9.75859061,1.23236377 10.3322877,1.57577404 10.797981,2.00061698 C11.2587128,2.42093368 11.6217193,2.88590833 11.8843103,3.39467857 C12.1390493,3.88823538 12.316005,4.37084174 12.4136302,4.84269724 L12.5021322,5.27045679 L9.58776995,6.29710712 L9.49411852,5.70398128 Z M24.646,7.568 L24.646,0.902 L27.802,0.902 L27.802,17.5 L24.646,17.5 L24.646,10.57 L17.682,10.57 L17.682,17.5 L14.526,17.5 L14.526,0.902 L17.682,0.902 L17.682,7.568 L24.646,7.568 Z M33.918,12.4893673 L33.918,17.5 L30.762,17.5 L30.762,0.902 L33.918,0.902 L33.918,8.13922061 L40.5008966,0.902 L44.7107869,0.902 L37.723295,8.38690663 L44.6566663,17.5 L40.6690655,17.5 L35.5965944,10.6944346 L33.918,12.4893673 Z M46.458,9.19 C46.458,10.1399278 46.6043426,10.9669337 46.8937033,11.673512 C47.1846374,12.3839326 47.5663499,12.9732431 48.0385534,13.4454466 C48.5095733,13.9164665 49.0474203,14.266232 49.6557865,14.4976757 C50.2734399,14.7326526 50.9171741,14.85 51.59,14.85 C52.2483014,14.85 52.888984,14.7325974 53.5148869,14.4970425 C54.1300944,14.2655128 54.6709721,13.9159212 55.1414466,13.4454466 C55.6136501,12.9732431 55.9953626,12.3839326 56.2862968,11.673512 C56.5756574,10.9669337 56.722,10.1399278 56.722,9.19 C56.722,8.24007221 56.5756574,7.41306641 56.2862968,6.706488 C55.9957611,5.99704052 55.6148468,5.41230356 55.1439629,4.94805192 C54.6730843,4.48380544 54.1313362,4.1369545 53.514887,3.90495748 C52.888984,3.66940258 52.2483013,3.552 51.59,3.552 C50.9171742,3.552 50.27344,3.66934737 49.6557864,3.90432429 C49.0461774,4.13624076 48.5074642,4.4832646 48.0360371,4.94805192 C47.5651532,5.41230356 47.1842389,5.99704052 46.8937033,6.70648798 C46.6043426,7.41306641 46.458,8.24007221 46.458,9.19 Z M43.258,9.19 C43.258,7.81739259 43.4950353,6.59335787 43.9722318,5.52162146 C44.4460102,4.45756188 45.0746358,3.55562083 45.857545,2.81968617 C46.6382394,2.08583343 47.5298307,1.52663362 48.5292441,1.1440457 C49.5246547,0.762990102 50.545867,0.572 51.59,0.572 C52.634133,0.572 53.6553453,0.762990102 54.6507559,1.1440457 C55.6501693,1.52663362 56.5417606,2.08583343 57.322455,2.81968617 C58.1053642,3.55562083 58.7339898,4.45756188 59.2077682,5.52162146 C59.6849647,6.59335787 59.922,7.81739259 59.922,9.19 C59.922,10.5622602 59.6850871,11.7895469 59.2083148,12.8681464 C58.7345555,13.9399297 58.105786,14.8459827 57.322455,15.5823138 C56.5417606,16.3161666 55.6501693,16.8753664 54.6507559,17.2579543 C53.6553453,17.6390099 52.6341329,17.83 51.59,17.83 C50.5458671,17.83 49.5246547,17.6390099 48.5292441,17.2579543 C47.5298307,16.8753664 46.6382394,16.3161666 45.857545,15.5823138 C45.074214,14.8459827 44.4454445,13.9399297 43.9716852,12.8681464 C43.4949129,11.7895469 43.258,10.5622602 43.258,9.19 Z M67.738,14.586 C68.397343,14.586 69.019854,14.4755545 69.6084383,14.2548354 C70.1870627,14.0378513 70.6910046,13.7138886 71.1244466,13.2804466 C71.5566301,12.8482631 71.9002132,12.2998517 72.1546082,11.6303911 C72.4103536,10.9573771 72.54,10.159028 72.54,9.234 C72.54,8.30854569 72.4102333,7.50604111 72.1540261,6.8250694 C71.8986965,6.1464303 71.5570999,5.58926303 71.1301309,5.14915654 C70.7033302,4.70922343 70.2063226,4.37897495 69.6350022,4.15570032 C69.0557305,3.92931831 68.4391456,3.816 67.782,3.816 L65.048,3.816 L65.048,14.586 L67.738,14.586 Z M61.892,0.902 L67.848,0.902 C68.8901716,0.902 69.8918302,1.0812852 70.8501444,1.43967913 C71.8170722,1.80129439 72.6649103,2.33760127 73.3896471,3.046583 C74.1141107,3.75529748 74.6905788,4.6298034 75.1190507,5.66592637 C75.5487662,6.70505643 75.762,7.89528871 75.762,9.234 C75.762,10.5730562 75.5486557,11.7600266 75.1185385,12.7923077 C74.68897,13.8232719 74.1032326,14.6920502 73.3617652,15.3940778 C72.6228065,16.0937301 71.7685839,16.6212224 70.8027907,16.9745614 C69.8454236,17.3248177 68.8449378,17.5 67.804,17.5 L61.892,17.5 L61.892,0.902 Z M80.91,11.12 L80.91,17.5 L77.732,17.5 L77.732,0.902 L84.106,0.902 C84.9019533,0.902 85.6295557,1.03465681 86.2856484,1.30195382 C86.9413468,1.56909019 87.5010915,1.93680568 87.9606682,2.40458913 C88.4192265,2.87133602 88.7715065,3.4202374 89.0158887,4.04748492 C89.258808,4.67097768 89.38,5.33753394 89.38,6.044 C89.38,7.2879701 89.0069532,8.36611631 88.2628218,9.25743844 C87.6511833,9.99006035 86.8462248,10.5034091 85.8595349,10.7968387 L89.6737917,17.5 L86.012585,17.5 L82.448585,11.12 L80.91,11.12 Z M83.71,8.184 C84.4744338,8.184 85.0679986,7.98512519 85.5140295,7.59334126 C85.945024,7.21476513 86.158,6.71110554 86.158,6.044 C86.158,5.34527513 85.9429812,4.82225651 85.5111926,4.43714772 C85.0653622,4.03951523 84.4730295,3.838 83.71,3.838 L80.91,3.838 L80.91,8.184 L83.71,8.184 Z M96.2852742,13.144 L94.6352742,17.5 L91.2430299,17.5 L97.8447732,0.902 L101.009227,0.902 L107.61097,17.5 L104.199966,17.5 L102.505966,13.144 L96.2852742,13.144 Z M101.348505,10.142 L99.3758264,5.04190472 L97.4352242,10.142 L101.348505,10.142 Z M119.244,0.902 L122.4,0.902 L122.4,17.5 L119.387507,17.5 L111.73,5.94376235 L111.73,17.5 L108.574,17.5 L108.574,0.902 L112.227176,0.902 L119.244,11.6849163 L119.244,0.902 Z M137.905274,13.144 L136.255274,17.5 L132.86303,17.5 L139.464773,0.902 L142.629227,0.902 L149.23097,17.5 L145.819966,17.5 L144.125966,13.144 L137.905274,13.144 Z M142.968505,10.142 L140.995826,5.04190472 L139.055224,10.142 L142.968505,10.142 Z M153.372,11.12 L153.372,17.5 L150.194,17.5 L150.194,0.902 L156.568,0.902 C157.363953,0.902 158.091556,1.03465681 158.747648,1.30195382 C159.403347,1.56909006 159.963091,1.93680543 160.422668,2.404589 C160.881227,2.87133573 161.233507,3.42023711 161.477889,4.047485 C161.720808,4.67097789 161.842,5.33753415 161.842,6.044 C161.842,7.28797043 161.468953,8.36611659 160.724822,9.25743853 C160.113183,9.99006048 159.308225,10.5034091 158.321535,10.7968387 L162.135792,17.5 L158.474585,17.5 L154.910585,11.12 L153.372,11.12 Z M156.172,8.184 C156.936434,8.184 157.529999,7.98512503 157.976029,7.59334138 C158.407024,7.214765 158.62,6.7111052 158.62,6.044 C158.62,5.34527548 158.404981,4.82225664 157.973192,4.4371476 C157.527363,4.03951539 156.935029,3.838 156.172,3.838 L153.372,3.838 L153.372,8.184 L156.172,8.184 Z M163.812,0.902 L167.012,0.902 L167.012,17.5 L163.812,17.5 L163.812,0.902 Z M173.128,17.5 L169.972,17.5 L169.972,0.902 L180.454,0.902 L180.454,3.904 L173.128,3.904 L173.128,7.92 L179.772,7.92 L179.772,10.944 L173.128,10.944 L173.128,17.5 Z M182.094,0.902 L185.294,0.902 L185.294,17.5 L182.094,17.5 L182.094,0.902 Z" id="SHKODRAN-ARIFI"></path>
        </g>
    </g>
</svg>