<?xml version="1.0" encoding="UTF-8"?>
<svg width="16px" height="13px" viewBox="0 0 16 13" version="1.1" xmlns="http://www.w3.org/2000/svg" xmlns:xlink="http://www.w3.org/1999/xlink">
    <!-- Generator: Sketch 50.2 (55047) - http://www.bohemiancoding.com/sketch -->
    <title>Medium</title>
    <desc>Created with Sketch.</desc>
    <defs></defs>
    <g id="Page-1" stroke="none" stroke-width="1" fill="none" fill-rule="evenodd">
        <g id="Home-v2" transform="translate(-1279.000000, -371.000000)" fill="#4630EB" fill-rule="nonzero">
            <g id="social-media" transform="translate(1277.000000, 371.000000)">
                <g id="Medium" transform="translate(2.000000, 0.000000)">
                    <path d="M1.89729225,2.58397021 C1.91717103,2.38811209 1.84227176,2.19452813 1.69561158,2.06270821 L0.201680672,0.268077601 L0.201680672,0 L4.84033613,0 L8.4257703,7.8412698 L11.5779646,0 L16,0 L16,0.268077601 L14.7226891,1.48932001 C14.6125709,1.57302312 14.5579466,1.71059511 14.5807657,1.84675681 L14.5807657,10.8199099 C14.5579466,10.9560716 14.6125709,11.0936435 14.7226891,11.1773467 L15.9701214,12.3985891 L15.9701214,12.6666667 L9.6956116,12.6666667 L9.6956116,12.3985891 L10.9878619,11.1475603 C11.1148459,11.020968 11.1148459,10.9837351 11.1148459,10.7901235 L11.1148459,3.53713503 L7.5219421,12.6368803 L7.03641457,12.6368803 L2.85340802,3.53713503 L2.85340802,9.63590043 C2.81853164,9.8923097 2.90392915,10.1504577 3.08496732,10.3358809 L4.7656396,12.3688027 L4.7656396,12.6368803 L0,12.6368803 L0,12.3688027 L1.68067227,10.3358809 C1.86039232,10.1501503 1.94081024,9.89028983 1.89729225,9.63590043 L1.89729225,2.58397021 Z" id="Shape"></path>
                </g>
            </g>
        </g>
    </g>
</svg>