<?xml version="1.0" encoding="UTF-8"?>
<svg width="1170px" height="180px" viewBox="0 0 1170 180" version="1.1" xmlns="http://www.w3.org/2000/svg" xmlns:xlink="http://www.w3.org/1999/xlink">
    <!-- Generator: Sketch 51.2 (57519) - http://www.bohemiancoding.com/sketch -->
    <title>My process</title>
    <desc>Created with Sketch.</desc>
    <defs></defs>
    <g id="Page-1" stroke="none" stroke-width="1" fill="none" fill-rule="evenodd">
        <g id="Home-v2-Copy" transform="translate(-135.000000, -2964.000000)">
            <g id="How-I-help-the-world" transform="translate(135.000000, 2260.000000)">
                <g id="My-process" transform="translate(0.000000, 704.000000)">
                    <rect id="bg-/process" fill="#FBFBFB" x="0" y="0" width="1170" height="180"></rect>
                    <g id="Group-4" transform="translate(60.000000, 38.000000)">
                        <g id="001-right-arrow" opacity="0.799944196" transform="translate(152.000000, 78.000000)" fill="#4630EB" fill-rule="nonzero">
                            <path d="M29.744152,7.06438596 L22.9392982,0.259473684 C22.6948538,-0.0259649123 22.2652632,-0.0592397661 21.9798246,0.185263158 C21.694386,0.429707602 21.6611111,0.859298246 21.905614,1.14473684 C21.9284211,1.17134503 21.9532164,1.19619883 21.9798246,1.21894737 L27.6210526,6.86701754 L0.680467836,6.86701754 C0.304678363,6.86701754 0,7.17169591 0,7.54754386 C0,7.92339181 0.304678363,8.2280117 0.680467836,8.2280117 L27.6210526,8.2280117 L21.9798246,13.8692398 C21.694386,14.1136842 21.6611111,14.5432749 21.905614,14.8287135 C22.150117,15.114152 22.5796491,15.1474269 22.8650877,14.902924 C22.8916959,14.880117 22.9165497,14.8553216 22.9392982,14.8287135 L29.7442105,8.02380117 C30.0080117,7.75847953 30.0080117,7.32982456 29.744152,7.06438596 Z" id="Shape"></path>
                        </g>
                        <g id="001-right-arrow-copy" opacity="0.799944196" transform="translate(382.000000, 78.000000)" fill="#4630EB" fill-rule="nonzero">
                            <path d="M29.744152,7.06438596 L22.9392982,0.259473684 C22.6948538,-0.0259649123 22.2652632,-0.0592397661 21.9798246,0.185263158 C21.694386,0.429707602 21.6611111,0.859298246 21.905614,1.14473684 C21.9284211,1.17134503 21.9532164,1.19619883 21.9798246,1.21894737 L27.6210526,6.86701754 L0.680467836,6.86701754 C0.304678363,6.86701754 0,7.17169591 0,7.54754386 C0,7.92339181 0.304678363,8.2280117 0.680467836,8.2280117 L27.6210526,8.2280117 L21.9798246,13.8692398 C21.694386,14.1136842 21.6611111,14.5432749 21.905614,14.8287135 C22.150117,15.114152 22.5796491,15.1474269 22.8650877,14.902924 C22.8916959,14.880117 22.9165497,14.8553216 22.9392982,14.8287135 L29.7442105,8.02380117 C30.0080117,7.75847953 30.0080117,7.32982456 29.744152,7.06438596 Z" id="Shape"></path>
                        </g>
                        <g id="001-right-arrow-copy-2" opacity="0.799944196" transform="translate(639.000000, 78.000000)" fill="#4630EB" fill-rule="nonzero">
                            <path d="M29.744152,7.06438596 L22.9392982,0.259473684 C22.6948538,-0.0259649123 22.2652632,-0.0592397661 21.9798246,0.185263158 C21.694386,0.429707602 21.6611111,0.859298246 21.905614,1.14473684 C21.9284211,1.17134503 21.9532164,1.19619883 21.9798246,1.21894737 L27.6210526,6.86701754 L0.680467836,6.86701754 C0.304678363,6.86701754 0,7.17169591 0,7.54754386 C0,7.92339181 0.304678363,8.2280117 0.680467836,8.2280117 L27.6210526,8.2280117 L21.9798246,13.8692398 C21.694386,14.1136842 21.6611111,14.5432749 21.905614,14.8287135 C22.150117,15.114152 22.5796491,15.1474269 22.8650877,14.902924 C22.8916959,14.880117 22.9165497,14.8553216 22.9392982,14.8287135 L29.7442105,8.02380117 C30.0080117,7.75847953 30.0080117,7.32982456 29.744152,7.06438596 Z" id="Shape"></path>
                        </g>
                        <g id="001-right-arrow-copy-3" opacity="0.799944196" transform="translate(843.000000, 78.000000)" fill="#4630EB" fill-rule="nonzero">
                            <path d="M29.744152,7.06438596 L22.9392982,0.259473684 C22.6948538,-0.0259649123 22.2652632,-0.0592397661 21.9798246,0.185263158 C21.694386,0.429707602 21.6611111,0.859298246 21.905614,1.14473684 C21.9284211,1.17134503 21.9532164,1.19619883 21.9798246,1.21894737 L27.6210526,6.86701754 L0.680467836,6.86701754 C0.304678363,6.86701754 0,7.17169591 0,7.54754386 C0,7.92339181 0.304678363,8.2280117 0.680467836,8.2280117 L27.6210526,8.2280117 L21.9798246,13.8692398 C21.694386,14.1136842 21.6611111,14.5432749 21.905614,14.8287135 C22.150117,15.114152 22.5796491,15.1474269 22.8650877,14.902924 C22.8916959,14.880117 22.9165497,14.8553216 22.9392982,14.8287135 L29.7442105,8.02380117 C30.0080117,7.75847953 30.0080117,7.32982456 29.744152,7.06438596 Z" id="Shape"></path>
                        </g>
                        <g id="003-flow-chart" transform="translate(262.000000, 0.000000)" fill="#4630EB" fill-rule="nonzero">
                            <path d="M37.9244906,17.2972973 L35.263368,17.2972973 L35.263368,12.6403326 C35.263368,12.2729314 34.9654886,11.975052 34.5980873,11.975052 L28.0523909,11.975052 L20.6271933,9.5002079 L20.6271933,7.98336798 L25.284158,7.98336798 C26.3864449,7.98336798 27.28,7.08981289 27.28,5.98752599 L27.28,1.995842 C27.28,0.893555094 26.3864449,0 25.284158,0 L14.6396674,0 C13.5373805,0 12.6438254,0.893555094 12.6438254,1.995842 L12.6438254,5.98752599 C12.6438254,7.08981289 13.5373805,7.98336798 14.6396674,7.98336798 L19.296632,7.98336798 L19.296632,9.5002079 L11.768316,12.0096466 C11.4192931,12.1244075 11.2292723,12.5003742 11.3440333,12.8493971 C11.4100624,13.0502287 11.5674844,13.2076507 11.768316,13.2736798 L19.296632,15.7804574 L19.296632,17.2972973 L16.6355094,17.2972973 C15.5332225,17.2972973 14.6396674,18.1908524 14.6396674,19.2931393 L14.6396674,19.95842 L10.6479834,19.95842 L10.6479834,19.2931393 C10.6479834,18.1908524 9.75442827,17.2972973 8.65214137,17.2972973 L1.99933472,17.2972973 C0.897047817,17.2972973 0.00349272349,18.1908524 0.00349272349,19.2931393 L0.00349272349,21.954262 C0.00349272349,23.0565489 0.897047817,23.950104 1.99933472,23.950104 L4.66045738,23.950104 L4.66045738,30.6561331 C2.11434511,31.0200416 0.345363825,33.3790437 0.709272349,35.9251559 C1.07318087,38.4712682 3.43218295,40.2402495 5.97829522,39.876341 C8.02702703,39.5835343 9.6366736,37.9738046 9.92948025,35.9251559 L15.3581705,35.9251559 C15.7255717,38.4707692 18.0870686,40.2365073 20.6326819,39.869106 C23.1782952,39.5017048 24.9440333,37.1402079 24.576632,34.5945946 C24.2092308,32.0489813 21.8477339,30.2832432 19.3021206,30.6506445 C17.2585447,30.9456133 15.6531393,32.5510187 15.3581705,34.5945946 L9.92948025,34.5945946 C9.63293139,32.5548441 8.03076923,30.9526819 5.99101871,30.6561331 L5.99101871,23.950104 L8.65214137,23.950104 C9.75442827,23.950104 10.6479834,23.0565489 10.6479834,21.954262 L10.6479834,21.2889813 L14.6396674,21.2889813 L14.6396674,21.954262 C14.6396674,23.0565489 15.5332225,23.950104 16.6355094,23.950104 L23.288316,23.950104 C24.3906029,23.950104 25.284158,23.0565489 25.284158,21.954262 L25.284158,21.2889813 L29.275842,21.2889813 L29.275842,21.954262 C29.275842,23.0565489 30.1693971,23.950104 31.271684,23.950104 L33.9328067,23.950104 L33.9328067,30.6561331 C31.3871933,31.0235343 29.6214553,33.3850312 29.9888565,35.9306445 C30.3562578,38.4762578 32.7177547,40.2419958 35.263368,39.8745946 C37.8089813,39.5071933 39.5747193,37.1456965 39.2073181,34.6000832 C38.9123493,32.5565073 37.3069439,30.9511019 35.263368,30.6561331 L35.263368,23.950104 L37.9244906,23.950104 C39.0267775,23.950104 39.9203326,23.0565489 39.9203326,21.954262 L39.9203326,19.2931393 C39.9203326,18.1908524 39.0267775,17.2972973 37.9244906,17.2972973 Z M19.9619127,31.9334719 C21.7990021,31.9334719 23.288316,33.4227859 23.288316,35.2598753 C23.288316,37.0969647 21.7990021,38.5862786 19.9619127,38.5862786 C18.1248233,38.5862786 16.6355094,37.0969647 16.6355094,35.2598753 C16.6376715,33.4237006 18.1256549,31.9356341 19.9619127,31.9334719 Z M8.65214137,35.2598753 C8.65214137,37.0969647 7.16282744,38.5862786 5.32573805,38.5862786 C3.48864865,38.5862786 1.99933472,37.0969647 1.99933472,35.2598753 C1.99933472,33.4227859 3.48864865,31.9334719 5.32573805,31.9334719 C7.16191268,31.9356341 8.64989605,33.4237006 8.65214137,35.2598753 Z M9.31742204,21.954262 C9.31742204,22.3216632 9.01954262,22.6195426 8.65214137,22.6195426 L1.99933472,22.6195426 C1.63193347,22.6195426 1.33405405,22.3216632 1.33405405,21.954262 L1.33405405,19.2931393 C1.33405405,18.925738 1.63193347,18.6278586 1.99933472,18.6278586 L8.65214137,18.6278586 C9.01954262,18.6278586 9.31742204,18.925738 9.31742204,19.2931393 L9.31742204,21.954262 Z M14.6396674,6.65280665 C14.2722661,6.65280665 13.9743867,6.35492723 13.9743867,5.98752599 L13.9743867,1.995842 C13.9743867,1.62844075 14.2722661,1.33056133 14.6396674,1.33056133 L25.284158,1.33056133 C25.6515593,1.33056133 25.9494387,1.62844075 25.9494387,1.995842 L25.9494387,5.98752599 C25.9494387,6.35492723 25.6515593,6.65280665 25.284158,6.65280665 L14.6396674,6.65280665 Z M14.0821622,12.6403326 L19.9619127,10.6804158 L25.8416632,12.6403326 L19.9619127,14.6002495 L14.0821622,12.6403326 Z M23.9535967,21.954262 C23.9535967,22.3216632 23.6557173,22.6195426 23.288316,22.6195426 L16.6355094,22.6195426 C16.2681081,22.6195426 15.9702287,22.3216632 15.9702287,21.954262 L15.9702287,19.2931393 C15.9702287,18.925738 16.2681081,18.6278586 16.6355094,18.6278586 L23.288316,18.6278586 C23.6557173,18.6278586 23.9535967,18.925738 23.9535967,19.2931393 L23.9535967,21.954262 Z M29.275842,19.2931393 L29.275842,19.95842 L25.284158,19.95842 L25.284158,19.2931393 C25.284158,18.1908524 24.3906029,17.2972973 23.288316,17.2972973 L20.6271933,17.2972973 L20.6271933,15.7804574 L28.0523909,13.3056133 L33.9328067,13.3056133 L33.9328067,17.2972973 L31.271684,17.2972973 C30.1693971,17.2972973 29.275842,18.1908524 29.275842,19.2931393 Z M37.9244906,35.2598753 C37.9244906,37.0969647 36.4351767,38.5862786 34.5980873,38.5862786 C32.7609979,38.5862786 31.271684,37.0969647 31.271684,35.2598753 C31.271684,33.4227859 32.7609979,31.9334719 34.5980873,31.9334719 C36.434262,31.9356341 37.9222453,33.4237006 37.9244906,35.2598753 Z M38.5897713,21.954262 C38.5897713,22.3216632 38.2918919,22.6195426 37.9244906,22.6195426 L31.271684,22.6195426 C30.9042827,22.6195426 30.6064033,22.3216632 30.6064033,21.954262 L30.6064033,19.2931393 C30.6064033,18.925738 30.9042827,18.6278586 31.271684,18.6278586 L37.9244906,18.6278586 C38.2918919,18.6278586 38.5897713,18.925738 38.5897713,19.2931393 L38.5897713,21.954262 Z" id="Shape"></path>
                        </g>
                        <g id="004-research" transform="translate(31.000000, 0.000000)" fill="#4630EB" fill-rule="nonzero">
                            <path d="M30.8334375,0 L2.50007813,0 C1.119375,0 7.8125e-05,1.11929688 7.8125e-05,2.5 L7.8125e-05,22.5 C7.8125e-05,23.8807031 1.119375,25 2.50007813,25 L13.3334375,25 L13.3334375,23.3333594 L2.50007813,23.3333594 C2.03984375,23.3333594 1.66671875,22.9602344 1.66671875,22.5 L1.66671875,2.5 C1.66671875,2.03976562 2.03984375,1.66664062 2.50007813,1.66664062 L30.8334375,1.66664062 C31.2936719,1.66664062 31.6667969,2.03976562 31.6667969,2.5 L31.6667969,17.5 L33.3334375,17.5 L33.3334375,2.5 C33.3334375,1.11929688 32.2141406,0 30.8334375,0 Z" id="Shape"></path>
                            <rect id="Rectangle-path" x="10.0000781" y="24.1666406" width="1.66664063" height="5"></rect>
                            <path d="M5.8334375,20 C5.37320313,20 5.00007813,19.626875 5.00007813,19.1666406 L5.00007813,17.5 L3.3334375,17.5 L3.3334375,19.1666406 C3.3334375,20.5473437 4.45273438,21.6666406 5.8334375,21.6666406 L7.50007813,21.6666406 L7.50007813,20 L5.8334375,20 Z" id="Shape"></path>
                            <rect id="Rectangle-path" x="3.3334375" y="14.1666406" width="1.66664063" height="1.66664062"></rect>
                            <path d="M30.4559375,17.6516406 C28.7578125,15.9532031 26.4544531,14.9990625 24.0527344,14.9991406 C19.0522656,14.999375 14.99875,19.0532031 14.9989062,24.0536719 C14.9991406,29.0541406 19.0529687,33.1076562 24.0534375,33.1075 C26.454375,33.1074219 28.756875,32.15375 30.4547656,30.4561719 C33.9909375,26.920625 33.9914844,21.1878906 30.4559375,17.6516406 Z M24.0484375,31.4416406 C19.9684375,31.4402344 16.6620313,28.1316406 16.6634375,24.0516406 C16.6648437,19.9716406 19.9734375,16.6652344 24.0534375,16.6666406 C26.0144531,16.6613281 27.8959375,17.4416406 29.2775781,18.8332812 C30.6617969,20.2190625 31.4390625,22.0978906 31.4384375,24.0566406 C31.4370313,28.1366406 28.1284375,31.4430469 24.0484375,31.4416406 Z" id="Shape"></path>
                            <path d="M39.7559375,36.25 L34.5250781,31.0208594 C34.3688281,30.8646094 34.156875,30.7767188 33.9359375,30.7767188 C33.7149219,30.7767969 33.5030469,30.8646094 33.3467969,31.0208594 L31.0217969,33.3458594 C30.6964844,33.67125 30.6964844,34.19875 31.0217969,34.5242188 L36.2526562,39.7558594 C36.4089062,39.9121875 36.6208594,40 36.8417969,40 C37.063125,39.9992969 37.2751562,39.9105469 37.4309375,39.7533594 L39.7559375,37.4283594 C40.08125,37.1028906 40.08125,36.5753906 39.7559375,36.25 Z M36.8417187,37.9883594 L32.7892187,33.935 L33.9358594,32.7883594 L37.9883594,36.8417187 L36.8417187,37.9883594 Z" id="Shape"></path>
                            <rect id="Rectangle-path" transform="translate(31.319672, 31.319153) rotate(-45.000000) translate(-31.319672, -31.319153) " x="30.48636" y="29.2641729" width="1.66662464" height="4.10996058"></rect>
                            <path d="M24.1667188,18.3333594 L24.1667188,20 C26.4667969,20.0027344 28.330625,21.8666406 28.3333594,24.1666406 L30,24.1666406 C29.9964063,20.9465625 27.386875,18.3370312 24.1667188,18.3333594 Z" id="Shape"></path>
                            <rect id="Rectangle-path" x="8.3334375" y="28.3333594" width="6.66664062" height="1.66664063"></rect>
                            <path d="M12.5000781,3.33335938 C11.119375,3.33335938 10.0000781,4.45265625 10.0000781,5.83335938 C10.0000781,7.2140625 11.119375,8.33335938 12.5000781,8.33335938 C13.8807813,8.33335938 15.0000781,7.2140625 15.0000781,5.83335938 C15.0000781,4.45265625 13.8807813,3.33335938 12.5000781,3.33335938 Z M12.5000781,6.66664062 C12.0398438,6.66664062 11.6667187,6.29351562 11.6667187,5.83328125 C11.6667187,5.37304687 12.0398438,4.99992187 12.5000781,4.99992187 C12.9603125,4.99992187 13.3334375,5.37304687 13.3334375,5.83328125 C13.3334375,6.29359375 12.9603125,6.66664062 12.5000781,6.66664062 Z" id="Shape"></path>
                            <path d="M18.3334375,9.16664062 C16.9527344,9.16664062 15.8334375,10.2859375 15.8334375,11.6666406 C15.8334375,13.0473437 16.9527344,14.1666406 18.3334375,14.1666406 C19.7141406,14.1666406 20.8334375,13.0473437 20.8334375,11.6666406 C20.8334375,10.2859375 19.7141406,9.16664062 18.3334375,9.16664062 Z M18.3334375,12.5 C17.8732031,12.5 17.5000781,12.126875 17.5000781,11.6666406 C17.5000781,11.2064063 17.8732031,10.8332812 18.3334375,10.8332812 C18.7936719,10.8332812 19.1667969,11.2064063 19.1667969,11.6666406 C19.1667188,12.126875 18.7936719,12.5 18.3334375,12.5 Z" id="Shape"></path>
                            <rect id="Rectangle-path" transform="translate(9.583321, 8.750229) rotate(-45.000000) translate(-9.583321, -8.750229) " x="6.63709939" y="7.91691619" width="5.89244349" height="1.66662464"></rect>
                            <rect id="Rectangle-path" transform="translate(15.413063, 8.752352) rotate(-45.000000) translate(-15.413063, -8.752352) " x="14.5797511" y="5.80612985" width="1.66662464" height="5.89244349"></rect>
                            <path d="M24.1667188,3.33335938 C22.7860156,3.33335938 21.6667188,4.45265625 21.6667188,5.83335938 C21.6667188,7.2140625 22.7860156,8.33335938 24.1667188,8.33335938 C25.5474219,8.33335938 26.6667188,7.2140625 26.6667188,5.83335938 C26.6667969,4.45265625 25.5475,3.33335938 24.1667188,3.33335938 Z M24.1667188,6.66664062 C23.7064844,6.66664062 23.3333594,6.29351562 23.3333594,5.83328125 C23.3333594,5.37304687 23.7064844,4.99992187 24.1667188,4.99992187 C24.6269531,4.99992187 25.0000781,5.37304687 25.0000781,5.83328125 C25.0000781,6.29359375 24.6269531,6.66664062 24.1667188,6.66664062 Z" id="Shape"></path>
                            <rect id="Rectangle-path" transform="translate(21.249555, 8.753152) rotate(-45.000000) translate(-21.249555, -8.753152) " x="18.3033337" y="7.91984016" width="5.89244349" height="1.66662464"></rect>
                        </g>
                        <text id="Research" font-family="Circular-Book, Circular" font-size="24" font-weight="300" fill="#4630EB">
                            <tspan x="0" y="91">Research</tspan>
                        </text>
                        <text id="Wireframes" font-family="Circular-Book, Circular" font-size="24" font-weight="300" fill="#4630EB">
                            <tspan x="461" y="91">Wireframes</tspan>
                        </text>
                        <g id="002-wireframe" transform="translate(505.000000, 0.000000)" fill="#4630EB" fill-rule="nonzero">
                            <path d="M35.625,3.359375 C35.19375,3.359375 34.84375,3.709375 34.84375,4.140625 C34.84375,4.571875 35.19375,4.921875 35.625,4.921875 C36.05625,4.921875 36.40625,4.571875 36.40625,4.140625 C36.40625,3.709375 36.05625,3.359375 35.625,3.359375 Z" id="Shape"></path>
                            <path d="M30.9375,3.359375 C30.50625,3.359375 30.15625,3.709375 30.15625,4.140625 C30.15625,4.571875 30.50625,4.921875 30.9375,4.921875 C31.36875,4.921875 31.71875,4.571875 31.71875,4.140625 C31.71875,3.709375 31.36875,3.359375 30.9375,3.359375 Z" id="Shape"></path>
                            <path d="M26.25,3.359375 C25.81875,3.359375 25.46875,3.709375 25.46875,4.140625 C25.46875,4.571875 25.81875,4.921875 26.25,4.921875 C26.68125,4.921875 27.03125,4.571875 27.03125,4.140625 C27.03125,3.709375 26.68125,3.359375 26.25,3.359375 Z" id="Shape"></path>
                            <path d="M21.5625,24.140625 C21.13125,24.140625 20.78125,24.490625 20.78125,24.921875 C20.78125,25.353125 21.13125,25.703125 21.5625,25.703125 C21.99375,25.703125 22.34375,25.353125 22.34375,24.921875 C22.34375,24.490625 21.99375,24.140625 21.5625,24.140625 Z" id="Shape"></path>
                            <path d="M21.5625,28.828125 C21.13125,28.828125 20.78125,29.178125 20.78125,29.609375 C20.78125,30.040625 21.13125,30.390625 21.5625,30.390625 C21.99375,30.390625 22.34375,30.040625 22.34375,29.609375 C22.34375,29.178125 21.99375,28.828125 21.5625,28.828125 Z" id="Shape"></path>
                            <path d="M21.5625,33.515625 C21.13125,33.515625 20.78125,33.865625 20.78125,34.296875 C20.78125,34.728125 21.13125,35.078125 21.5625,35.078125 C21.99375,35.078125 22.34375,34.728125 22.34375,34.296875 C22.34375,33.865625 21.99375,33.515625 21.5625,33.515625 Z" id="Shape"></path>
                            <path d="M37.65625,0 L2.34375,0 C1.05140625,0 0,1.05140625 0,2.34375 L0,37.65625 C0,38.9485938 1.05140625,40 2.34375,40 L37.65625,40 C38.9485938,40 40,38.9485938 40,37.65625 L40,2.34375 C40,1.05140625 38.9485938,0 37.65625,0 Z M38.4375,37.65625 C38.4375,38.0870312 38.0870313,38.4375 37.65625,38.4375 L2.34375,38.4375 C1.91296875,38.4375 1.5625,38.0870312 1.5625,37.65625 L1.5625,8.28125 L38.4375,8.28125 L38.4375,37.65625 Z M38.4375,6.71875 L1.5625,6.71875 L1.5625,2.34375 C1.5625,1.91296875 1.91296875,1.5625 2.34375,1.5625 L37.65625,1.5625 C38.0870313,1.5625 38.4375,1.91296875 38.4375,2.34375 L38.4375,6.71875 Z" id="Shape"></path>
                            <path d="M34.0625,11.40625 L5.9375,11.40625 C5.93460937,11.40625 5.931875,11.4066406 5.92898438,11.4066406 C5.91117188,11.4067969 5.89359375,11.4079687 5.87601563,11.4092969 C5.86742188,11.41 5.85875,11.4103906 5.85023438,11.4113281 C5.8340625,11.413125 5.818125,11.4158594 5.8021875,11.4186719 C5.7921875,11.4203906 5.7821875,11.4219531 5.77234375,11.4240625 C5.75882813,11.4270312 5.74554688,11.4307031 5.73226563,11.434375 C5.72054688,11.4375781 5.70867188,11.4405469 5.6971875,11.4442969 C5.68601563,11.4478906 5.67507813,11.4522656 5.6640625,11.4564062 C5.65125,11.46125 5.63828125,11.4658594 5.62578125,11.4713281 C5.615625,11.4757812 5.60585938,11.4808594 5.5959375,11.4857031 C5.58335937,11.4917969 5.57070313,11.4978125 5.55851563,11.5045313 C5.54804687,11.5103125 5.53796875,11.516875 5.5278125,11.5232031 C5.51695313,11.5299219 5.50601562,11.5363281 5.49554688,11.5435156 C5.48398438,11.5514844 5.47289062,11.5602344 5.46179688,11.5688281 C5.4534375,11.5753125 5.44484375,11.5814063 5.43671875,11.5882031 C5.424375,11.5985156 5.41273438,11.6096094 5.40101563,11.6207031 C5.39476563,11.6266406 5.38820313,11.6322656 5.3821875,11.6384375 C5.3703125,11.6504687 5.35914063,11.6632031 5.34796875,11.6760937 C5.34265625,11.6821875 5.33710938,11.6880469 5.33203125,11.6942969 C5.321875,11.7067969 5.31242188,11.7199219 5.30304688,11.733125 C5.29757813,11.7407031 5.291875,11.748125 5.28671875,11.7559375 C5.27890625,11.7676563 5.271875,11.7799219 5.2646875,11.7921875 C5.25867188,11.8024219 5.2525,11.8125 5.24695313,11.8230469 C5.2415625,11.8333594 5.23671875,11.8440625 5.23171875,11.8546094 C5.22546875,11.8678906 5.21914063,11.8811719 5.21359375,11.8948438 C5.20992188,11.9038281 5.206875,11.913125 5.20351563,11.9223438 C5.19789063,11.9379688 5.19242188,11.9536719 5.18773438,11.9697656 C5.186875,11.9727344 5.185625,11.9755469 5.18484375,11.9785156 C5.18296875,11.9852344 5.18203125,11.9919531 5.1803125,11.9986719 C5.17648438,12.0139063 5.17289063,12.0291406 5.17,12.0446875 C5.16765625,12.0572656 5.1659375,12.0698438 5.16421875,12.0824219 C5.16257813,12.0947656 5.16085937,12.1071094 5.15976563,12.1196094 C5.15835937,12.135625 5.15773438,12.1514844 5.15734375,12.1674219 C5.15710937,12.1740625 5.15625,12.1807031 5.15625,12.1875 L5.15625,20 C5.15625,20.4314062 5.50601562,20.78125 5.9375,20.78125 L34.0595312,20.78125 C34.060625,20.78125 34.0617969,20.7814844 34.0628906,20.7814844 C34.0882031,20.7814844 34.1132812,20.7798437 34.1382031,20.7774219 C34.1432031,20.7769531 34.148125,20.7761719 34.1530469,20.7755469 C34.1717969,20.7733594 34.1903125,20.7705469 34.20875,20.7670312 C34.2166406,20.7655469 34.2244531,20.7639062 34.2322656,20.7621094 C34.2475,20.75875 34.2625781,20.7547656 34.2775,20.7504687 C34.2861719,20.7479687 34.2948437,20.745625 34.3033594,20.7428906 C34.3184375,20.7379688 34.3332031,20.7323437 34.3478906,20.7266406 C34.3550781,20.7238281 34.3625,20.7214062 34.3696094,20.7183594 C34.3899219,20.7096875 34.4097656,20.7 34.4292969,20.6896094 C34.4373438,20.6853125 34.445,20.6805469 34.4528125,20.6760156 C34.4653906,20.66875 34.4778906,20.6613281 34.49,20.6533594 C34.4975,20.6484375 34.5048438,20.6432812 34.5121094,20.638125 C34.5245313,20.629375 34.5367188,20.6203125 34.5485938,20.6108594 C34.5546875,20.6059375 34.5608594,20.6010938 34.5667969,20.5960156 C34.5803125,20.5846094 34.5933594,20.5725781 34.6060937,20.5602344 C34.6099219,20.5564844 34.6139062,20.5529687 34.6177344,20.5491406 C34.65125,20.5153125 34.681875,20.4783594 34.7089844,20.4384375 C34.71125,20.4351563 34.7132031,20.4316406 34.7153906,20.4283594 C34.7258594,20.4124219 34.7357813,20.3961719 34.7450781,20.3794531 C34.7492187,20.3720312 34.7529688,20.364375 34.756875,20.3567969 C34.7634375,20.3439844 34.7697656,20.3310156 34.7757031,20.3177344 C34.7800781,20.3079688 34.7842188,20.2980469 34.788125,20.2880469 C34.7926563,20.2764844 34.7969531,20.2647656 34.8010156,20.2528906 C34.8048438,20.2416406 34.8085938,20.2304688 34.8119531,20.2190625 C34.8129687,20.2157031 34.8142187,20.2125 34.8152344,20.2090625 C34.8171094,20.2023438 34.8180469,20.195625 34.8197656,20.1889063 C34.8235938,20.1736719 34.8271875,20.1584375 34.8300781,20.1428906 C34.8324219,20.1303125 34.8341406,20.1177344 34.8358594,20.1051563 C34.8375,20.0928125 34.8392188,20.0804688 34.8403125,20.0679688 C34.8417187,20.0519531 34.8423437,20.0360938 34.8427344,20.0201563 C34.8428906,20.0133594 34.84375,20.0067969 34.84375,19.9999219 L34.84375,12.1875 C34.84375,11.7560937 34.4939844,11.40625 34.0625,11.40625 Z M6.71875,19.21875 L6.71875,13.2153125 L28.3311719,19.21875 L6.71875,19.21875 Z M33.28125,18.9721875 L11.6688281,12.96875 L33.28125,12.96875 L33.28125,18.9721875 Z" id="Shape"></path>
                            <path d="M16.875,24.140625 L5.9375,24.140625 C5.9290625,24.140625 5.9209375,24.1416406 5.91257813,24.141875 C5.89757813,24.1423437 5.88257813,24.1428125 5.86757813,24.1441406 C5.85507813,24.1452344 5.8428125,24.1471094 5.83054688,24.14875 C5.81789063,24.1504688 5.80523438,24.1521875 5.79265625,24.1545313 C5.77929688,24.1570313 5.76625,24.1601563 5.75320313,24.1633594 C5.74171875,24.1661719 5.73023438,24.1689063 5.71882813,24.1721875 C5.70585938,24.1759375 5.693125,24.1803125 5.68039063,24.1847656 C5.66898438,24.18875 5.65765625,24.1927344 5.64640625,24.1971875 C5.63460938,24.2019531 5.62304688,24.2071875 5.61148438,24.2125 C5.5996875,24.2178906 5.58796875,24.2233594 5.57640625,24.229375 C5.5659375,24.2348438 5.55578125,24.2407031 5.545625,24.2466406 C5.53367188,24.2535938 5.521875,24.2605469 5.51023438,24.268125 C5.50070313,24.274375 5.49148438,24.2810938 5.4821875,24.2877344 C5.4709375,24.2958594 5.4596875,24.3039844 5.44882813,24.3127344 C5.43929688,24.3203906 5.43015625,24.3285937 5.42101563,24.3366406 C5.41125,24.3452344 5.40148438,24.35375 5.39210938,24.3628906 C5.381875,24.3728906 5.37234375,24.3833594 5.36265625,24.3939063 C5.3565625,24.4005469 5.35007813,24.4064844 5.34421875,24.4133594 C5.34265625,24.4152344 5.34140625,24.4171875 5.33984375,24.4190625 C5.32992188,24.4308594 5.32070313,24.4433594 5.31148438,24.4557031 C5.30523438,24.4640625 5.29859375,24.4722656 5.29265625,24.4808594 C5.284375,24.4929687 5.27703125,24.505625 5.26945313,24.5182031 C5.26375,24.5276562 5.2575,24.5369531 5.2521875,24.5465625 C5.24585938,24.558125 5.24039063,24.5703125 5.23460938,24.5822656 C5.22929688,24.5932813 5.2234375,24.6042188 5.21867188,24.6153906 C5.21398438,24.6264063 5.21023438,24.6379687 5.20601563,24.6492187 C5.20132813,24.6617969 5.19625,24.6742187 5.1921875,24.6869531 C5.18890625,24.6975 5.18648438,24.7084375 5.18367188,24.7191406 C5.17992188,24.7330469 5.17585938,24.7469531 5.17289063,24.7610156 C5.17078125,24.7710156 5.16960938,24.78125 5.16789063,24.7914062 C5.1653125,24.8067188 5.16257813,24.821875 5.16085938,24.8372656 C5.15984375,24.8470312 5.15960938,24.8569531 5.15890625,24.8667969 C5.1578125,24.8828125 5.15664063,24.8988281 5.15648438,24.9148437 C5.15648438,24.9171875 5.15617188,24.9194531 5.15617188,24.9217969 L5.15617188,34.2967969 C5.15617188,34.7282031 5.5059375,35.0780469 5.93742188,35.0780469 L16.8749219,35.0780469 C16.9025,35.0780469 16.9297656,35.0764844 16.9566406,35.07375 C16.9582812,35.0735938 16.9598437,35.0732031 16.9614844,35.0729688 C16.9869531,35.0701562 17.0121094,35.06625 17.0367969,35.0610156 C17.0417188,35.06 17.0465625,35.0583594 17.0514844,35.0571875 C17.0726562,35.0522656 17.0936719,35.046875 17.1141406,35.0403125 C17.1220312,35.0378125 17.1296875,35.0345313 17.1375,35.0317187 C17.1545312,35.025625 17.1715625,35.019375 17.1880469,35.0121875 C17.1979688,35.0078906 17.2075,35.0028906 17.2172656,34.998125 C17.23125,34.9913281 17.2451562,34.984375 17.2585937,34.9767969 C17.2691406,34.9708594 17.279375,34.964375 17.2896875,34.9578906 C17.3020312,34.9501562 17.3141406,34.9421875 17.3259375,34.9338281 C17.3360156,34.9266406 17.3459375,34.9192187 17.3557031,34.9115625 C17.3675781,34.9022656 17.3791406,34.8925781 17.3904687,34.8825781 C17.3992187,34.8748437 17.4078906,34.8671875 17.4163281,34.8590625 C17.4290625,34.8467969 17.4410937,34.8339062 17.4529687,34.8207812 C17.4578125,34.8153906 17.4632031,34.8107031 17.4679687,34.8051562 C17.4695312,34.8032812 17.4707812,34.8013281 17.4723437,34.7994531 C17.4822656,34.7876562 17.4914844,34.7751563 17.5007031,34.7628125 C17.5069531,34.7544531 17.5135937,34.74625 17.5195312,34.7376563 C17.5278125,34.7255469 17.5351562,34.7128906 17.5427344,34.7003125 C17.5484375,34.6908594 17.5546875,34.6815625 17.56,34.6719531 C17.5663281,34.6603906 17.5717969,34.6482031 17.5775781,34.63625 C17.5828906,34.6252344 17.58875,34.6142969 17.5935156,34.603125 C17.5982031,34.5921094 17.6019531,34.5805469 17.6061719,34.5692969 C17.6108594,34.5567188 17.6159375,34.5442969 17.62,34.5315625 C17.6232812,34.5210156 17.6257031,34.5100781 17.6285156,34.499375 C17.6322656,34.4854688 17.6363281,34.4715625 17.6392969,34.4575 C17.6414062,34.4475 17.6425781,34.4372656 17.6442969,34.4271094 C17.646875,34.4117969 17.6496094,34.3966406 17.6513281,34.38125 C17.6523437,34.3714844 17.6525781,34.3615625 17.6532812,34.3517188 C17.654375,34.3357031 17.6555469,34.3196875 17.6557031,34.3036719 C17.6557031,34.3013281 17.6560156,34.2990625 17.6560156,34.2967188 L17.6560156,24.921875 C17.65625,24.4904688 17.3064844,24.140625 16.875,24.140625 Z M6.71875,33.515625 L6.71875,26.6204688 L14.7630469,33.515625 L6.71875,33.515625 Z M16.09375,32.5982812 L8.04945313,25.703125 L16.09375,25.703125 L16.09375,32.5982812 Z" id="Shape"></path>
                            <path d="M34.0625,24.140625 L24.6875,24.140625 C24.2560156,24.140625 23.90625,24.4904688 23.90625,24.921875 C23.90625,25.3532812 24.2560156,25.703125 24.6875,25.703125 L34.0625,25.703125 C34.4939844,25.703125 34.84375,25.3532812 34.84375,24.921875 C34.84375,24.4904688 34.4939844,24.140625 34.0625,24.140625 Z" id="Shape"></path>
                            <path d="M34.0625,28.828125 L24.6875,28.828125 C24.2560156,28.828125 23.90625,29.1779688 23.90625,29.609375 C23.90625,30.0407812 24.2560156,30.390625 24.6875,30.390625 L34.0625,30.390625 C34.4939844,30.390625 34.84375,30.0407812 34.84375,29.609375 C34.84375,29.1779688 34.4939844,28.828125 34.0625,28.828125 Z" id="Shape"></path>
                            <path d="M34.0625,33.515625 L24.6875,33.515625 C24.2560156,33.515625 23.90625,33.8654687 23.90625,34.296875 C23.90625,34.7282813 24.2560156,35.078125 24.6875,35.078125 L34.0625,35.078125 C34.4939844,35.078125 34.84375,34.7282813 34.84375,34.296875 C34.84375,33.8654687 34.4939844,33.515625 34.0625,33.515625 Z" id="Shape"></path>
                        </g>
                        <text id="Strategy" font-family="Circular-Book, Circular" font-size="24" font-weight="300" fill="#4630EB">
                            <tspan x="231" y="91">Strategy</tspan>
                        </text>
                        <text id="Design" font-family="Circular-Book, Circular" font-size="24" font-weight="300" fill="#4630EB">
                            <tspan x="718" y="91">Design</tspan>
                        </text>
                        <g id="001-computer-graphic" transform="translate(736.000000, 1.000000)" fill="#4630EB" fill-rule="nonzero">
                            <path d="M38.125,0 L1.875,0 C0.839453125,0 0,0.839453125 0,1.875 L0,29.375 C0,29.7201563 0.27984375,30 0.625,30 L14.8625,30 L13.8625,35 L12.5,35 C12.1548437,35 11.875,35.2798437 11.875,35.625 L11.875,37.5 L10.625,37.5 L10.625,38.75 L29.375,38.75 L29.375,37.5 L28.125,37.5 L28.125,35.625 C28.125,35.2798437 27.8451563,35 27.5,35 L26.1364844,35 L25.1364844,30 L39.375,30 C39.7201563,30 40,29.7201563 40,29.375 L40,1.875 C40,0.839453125 39.1605469,0 38.125,0 Z M25.625,36.25 L26.875,36.25 L26.875,37.5 L13.125,37.5 L13.125,36.25 L14.375,36.25 L25.625,36.25 Z M15.1375,35 L16.1365625,30 L23.8625,30 L24.8625,35 L15.1375,35 Z M38.75,28.75 L1.25,28.75 L1.25,23.125 L10,23.125 L13.75,23.125 L17.5,23.125 L21.25,23.125 L25,23.125 L30,23.125 L38.75,23.125 L38.75,28.75 Z M30,5.625 L25,5.625 C24.6548437,5.625 24.375,5.90484375 24.375,6.25 L24.375,11.875 L25.625,11.875 L25.625,6.875 L29.375,6.875 L29.375,9.375 L26.875,9.375 L26.875,10.625 L29.375,10.625 L29.375,13.75 L26.875,13.75 L26.875,15 L29.375,15 L29.375,18.125 L26.875,18.125 L26.875,19.375 L29.375,19.375 L29.375,21.875 L25.625,21.875 L25.625,16.875 L24.375,16.875 L24.375,21.875 L21.875,21.875 L21.875,18.75 C21.875,16.199375 24.9725,15.63875 25.1025,15.61625 C25.1795313,15.6033594 25.2534375,15.5761719 25.3204687,15.5360156 C25.6166406,15.3586719 25.7129688,14.9748438 25.535625,14.67875 L19.910625,5.30375 C19.8653125,5.23765625 19.8082031,5.18054688 19.7421094,5.13523438 C19.4463281,4.9325 19.0421094,5.00789063 18.839375,5.30375 L13.214375,14.67875 C13.1744531,14.7453125 13.1472656,14.81875 13.1342969,14.8953125 C13.0764063,15.235625 13.3053125,15.5583594 13.645625,15.61625 C13.7775,15.63875 16.875,16.199375 16.875,18.75 L16.875,21.875 L14.375,21.875 L14.375,16.875 L13.125,16.875 L13.125,21.875 L12.5,21.875 L12.5,10.625 L13.125,10.625 L13.125,11.875 L14.375,11.875 L14.375,10 C14.3751563,9.9153125 14.3579688,9.83148437 14.324375,9.75375 L12.449375,5.37875 C12.3861719,5.23140625 12.26875,5.11398438 12.1214062,5.05078125 C11.8042188,4.9146875 11.4367187,5.0615625 11.300625,5.37875 L9.425625,9.75375 C9.39203125,9.83148438 9.37484375,9.9153125 9.375,10 L9.375,21.875 L4.375,21.875 L4.375,4.375 L35.625,4.375 L35.625,21.875 L30.625,21.875 L30.625,6.25 C30.625,5.90484375 30.3451563,5.625 30,5.625 Z M18.125,20 L18.125,19.375 L20.625,19.375 L20.625,20 L18.125,20 Z M20.625,21.25 L20.625,21.875 L18.125,21.875 L18.125,21.25 L20.625,21.25 Z M18.079375,18.125 C17.78,16.1375 16.078125,15.0625 14.716875,14.603125 L18.75,7.88164063 L18.75,13.125 L20,13.125 L20,7.88164063 L24.033125,14.603125 C22.670625,15.059375 20.97,16.1375 20.670625,18.125 L18.079375,18.125 Z M10.9464844,9.375 L11.875,7.20875 L12.8035156,9.375 L10.9464844,9.375 Z M11.25,10.625 L11.25,21.875 L10.625,21.875 L10.625,10.625 L11.25,10.625 Z M38.75,21.875 L36.875,21.875 L36.875,3.75 C36.875,3.40484375 36.5951563,3.125 36.25,3.125 L3.75,3.125 C3.40484375,3.125 3.125,3.40484375 3.125,3.75 L3.125,21.875 L1.25,21.875 L1.25,1.875 C1.25,1.52984375 1.52984375,1.25 1.875,1.25 L38.125,1.25 C38.4701562,1.25 38.75,1.52984375 38.75,1.875 L38.75,21.875 Z" id="Shape"></path>
                            <path d="M20,23.75 C18.9644531,23.75 18.125,24.5894531 18.125,25.625 C18.125,26.6605469 18.9644531,27.5 20,27.5 C21.0355469,27.5 21.875,26.6605469 21.875,25.625 C21.875,24.5894531 21.0355469,23.75 20,23.75 Z M20,26.25 C19.6548437,26.25 19.375,25.9701563 19.375,25.625 C19.375,25.2798437 19.6548437,25 20,25 C20.3451563,25 20.625,25.2798437 20.625,25.625 C20.625,25.9701563 20.3451563,26.25 20,26.25 Z" id="Shape"></path>
                        </g>
                        <text id="Prototyping" font-family="Circular-Book, Circular" font-size="24" font-weight="300" fill="#4630EB">
                            <tspan x="922" y="91">Prototyping</tspan>
                        </text>
                        <g id="proto" transform="translate(971.000000, 2.000000)">
                            <polygon id="Triangle" fill="#4630EB" transform="translate(31.500000, 3.500000) rotate(90.000000) translate(-31.500000, -3.500000) " points="31.5 0 35 7 28 7"></polygon>
                            <circle id="Oval-2" stroke="#4630EB" stroke-width="1.5" fill="#ECEAFD" cx="3.5" cy="33.5" r="3.5"></circle>
                            <path d="M7,33.7412878 C10.9596049,34.6864205 13.7169058,33.0419697 15.2719026,28.8079356 C17.6043977,22.4568843 13.7453852,1.76221371 29,3.05825272" id="Path-4" stroke="#4630EB" stroke-width="1.5"></path>
                        </g>
                    </g>
                </g>
            </g>
        </g>
    </g>
</svg>