<?xml version="1.0" encoding="UTF-8"?>
<svg width="432px" height="1204px" viewBox="0 0 432 1204" version="1.1" xmlns="http://www.w3.org/2000/svg" xmlns:xlink="http://www.w3.org/1999/xlink">
    <!-- Generator: Sketch 52.2 (67145) - http://www.bohemiancoding.com/sketch -->
    <title>Artboard</title>
    <desc>Created with Sketch.</desc>
    <g id="Artboard" stroke="none" stroke-width="1" fill="none" fill-rule="evenodd">
        <rect id="Rectangle" fill="#FBFBFB" x="0" y="0" width="432" height="1204"></rect>
        <g id="Group" transform="translate(140.000000, 60.000000)" fill="#4630EB">
            <g id="004-research" transform="translate(35.000000, 0.000000)" fill-rule="nonzero">
                <path d="M64.7500041,0 L5.2499959,0 C2.3505216,0 0,2.37290938 0,5.3 L0,47.7 C0,50.6270906 2.3505216,53 5.2499959,53 L28.0000328,53 L28.0000328,49.4667219 L5.2499959,49.4667219 C4.28350447,49.4667219 3.49994258,48.6756969 3.49994258,47.7 L3.49994258,5.3 C3.49994258,4.32430313 4.28350447,3.53327812 5.2499959,3.53327812 L64.7500041,3.53327812 C65.7164955,3.53327812 66.5000574,4.32430313 66.5000574,5.3 L66.5000574,37.1 L70,37.1 L70,5.3 C70,2.37290938 67.6494784,0 64.7500041,0 Z" id="Shape"></path>
                <rect id="Rectangle-path" x="21" y="50" width="3" height="11"></rect>
                <path d="M12.4000338,42.4000338 C11.4059213,42.4000338 10.5999662,41.5940787 10.5999662,40.5999662 L10.5999662,37 L7,37 L7,40.5999662 C7,43.5823036 9.41769636,46 12.4000338,46 L16,46 L16,42.4000338 L12.4000338,42.4000338 Z" id="Shape"></path>
                <polygon id="Rectangle-path" points="7 30 10 30 10 33 7 33"></polygon>
                <path d="M64.4362803,37.5662138 C60.8727979,34.0020795 56.0392429,31.9998361 50.9992827,32 C40.505896,32.0004918 31.9996721,40.5073624 32,51.0007377 C32.0004918,61.4941131 40.5073715,70.0003279 51.0007582,70 C56.039079,69.9998361 60.8708306,67.9985763 64.4338211,64.4362453 C71.8544092,57.0169768 71.8555568,44.9869579 64.4362803,37.5662138 Z M50.9902658,66.5042302 C42.4284649,66.5012792 35.4900356,59.5582669 35.4929865,50.9964752 C35.4959375,42.4346836 42.4389573,35.4962617 51.0007582,35.4992126 C55.1159115,35.4880645 59.0641699,37.1255334 61.963516,40.0458611 C64.8682722,42.953893 66.499349,46.8965731 66.4980375,51.0069676 C66.4950865,59.5687592 59.5520667,66.5071812 50.9902658,66.5042302 Z" id="Shape"></path>
                <path d="M83.4973272,76.2749835 L72.7203646,65.5029308 C72.398448,65.1810551 71.9617682,65 71.5065781,65 C71.0512271,65.0001609 70.6147082,65.1810551 70.2927916,65.5029308 L65.5026728,70.292441 C64.8324424,70.9627471 64.8324424,72.0493994 65.5026728,72.7198665 L76.2796354,83.4970692 C76.601552,83.8191059 77.0382318,84 77.4934219,84 C77.9494167,83.9985516 78.3862576,83.8157262 78.7072084,83.4919192 L83.4973272,78.702409 C84.1675576,78.0319419 84.1675576,76.9452896 83.4973272,76.2749835 Z M77.4932609,79.8560115 L69.1440323,71.5060733 L71.5064172,69.1439885 L79.8556458,77.4939267 L77.4932609,79.8560115 Z" id="Shape"></path>
                <polygon id="Rectangle-path" transform="translate(65.771312, 65.770222) rotate(-45.000000) translate(-65.771312, -65.770222) " points="64.021356 61.4547632 67.5212678 61.4547632 67.5212678 70.0856804 64.021356 70.0856804"></polygon>
                <path d="M51,39 L51,42.4285485 C55.7316315,42.4341735 59.5658265,46.2685292 59.5714515,51 L63,51 C62.9926071,44.3757801 57.6243806,39.0075536 51,39 Z" id="Shape"></path>
                <polygon id="Rectangle-path" points="18 60 32 60 32 63 18 63"></polygon>
                <path d="M26.5,7 C23.4624531,7 21,9.46245313 21,12.5 C21,15.5375469 23.4624531,18 26.5,18 C29.5375469,18 32,15.5375469 32,12.5 C32,9.46245313 29.5375469,7 26.5,7 Z M26.5,14.3332188 C25.4874844,14.3332188 24.6666094,13.5123438 24.6666094,12.4998281 C24.6666094,11.4873125 25.4874844,10.6664375 26.5,10.6664375 C27.5125156,10.6664375 28.3333906,11.4873125 28.3333906,12.4998281 C28.3333906,13.5125156 27.5125156,14.3332188 26.5,14.3332188 Z" id="Shape"></path>
                <path d="M38.5,19 C35.4624531,19 33,21.4624531 33,24.5 C33,27.5375469 35.4624531,30 38.5,30 C41.5375469,30 44,27.5375469 44,24.5 C44,21.4624531 41.5375469,19 38.5,19 Z M38.5,26.3333906 C37.4874844,26.3333906 36.6666094,25.5125156 36.6666094,24.5 C36.6666094,23.4874844 37.4874844,22.6666094 38.5,22.6666094 C39.5125156,22.6666094 40.3333906,23.4874844 40.3333906,24.5 C40.3332188,25.5125156 39.5125156,26.3333906 38.5,26.3333906 Z" id="Shape"></path>
                <polygon id="Rectangle-path" transform="translate(20.124974, 18.375480) rotate(-45.000000) translate(-20.124974, -18.375480) " points="13.9379087 16.625524 26.3120401 16.625524 26.3120401 20.1254357 13.9379087 20.1254357"></polygon>
                <polygon id="Rectangle-path" transform="translate(32.367433, 18.379938) rotate(-45.000000) translate(-32.367433, -18.379938) " points="30.6174772 12.1928727 34.117389 12.1928727 34.117389 24.567004 30.6174772 24.567004"></polygon>
                <path d="M50.5,7 C47.4624531,7 45,9.46245313 45,12.5 C45,15.5375469 47.4624531,18 50.5,18 C53.5375469,18 56,15.5375469 56,12.5 C56.0001719,9.46245313 53.5377188,7 50.5,7 Z M50.5,14.3332188 C49.4874844,14.3332188 48.6666094,13.5123438 48.6666094,12.4998281 C48.6666094,11.4873125 49.4874844,10.6664375 50.5,10.6664375 C51.5125156,10.6664375 52.3333906,11.4873125 52.3333906,12.4998281 C52.3333906,13.5125156 51.5125156,14.3332188 50.5,14.3332188 Z" id="Shape"></path>
                <polygon id="Rectangle-path" transform="translate(44.624066, 18.381620) rotate(-45.000000) translate(-44.624066, -18.381620) " points="38.4370007 16.6316643 50.811132 16.6316643 50.811132 20.1315761 38.4370007 20.1315761"></polygon>
            </g>
            <text id="Research" font-family="Circular-Book, Circular" font-size="34" font-weight="300">
                <tspan x="6.171" y="138">Research</tspan>
            </text>
        </g>
        <g id="Group-2" transform="translate(149.000000, 293.000000)" fill="#4630EB">
            <g id="003-flow-chart" transform="translate(26.000000, 0.000000)" fill-rule="nonzero">
                <path d="M79.6414304,36.3243243 L74.0530728,36.3243243 L74.0530728,26.5446985 C74.0530728,25.7731559 73.427526,25.1476091 72.6559834,25.1476091 L58.9100208,25.1476091 L43.317106,19.9504366 L43.317106,16.7650728 L53.0967318,16.7650728 C55.4115343,16.7650728 57.288,14.8886071 57.288,12.5738046 L57.288,4.19126819 C57.288,1.8764657 55.4115343,0 53.0967318,0 L30.7433015,0 C28.428499,0 26.5520333,1.8764657 26.5520333,4.19126819 L26.5520333,12.5738046 C26.5520333,14.8886071 28.428499,16.7650728 30.7433015,16.7650728 L40.5229272,16.7650728 L40.5229272,19.9504366 L24.7134636,25.2202578 C23.9805156,25.4612557 23.5814719,26.2507859 23.8224699,26.9837339 C23.961131,27.4054802 24.2917173,27.7360665 24.7134636,27.8747277 L40.5229272,33.1389605 L40.5229272,36.3243243 L34.9345696,36.3243243 C32.6197672,36.3243243 30.7433015,38.20079 30.7433015,40.5155925 L30.7433015,41.9126819 L22.3607651,41.9126819 L22.3607651,40.5155925 C22.3607651,38.20079 20.4842994,36.3243243 18.1694969,36.3243243 L4.19860291,36.3243243 C1.88380042,36.3243243 0.00733471933,38.20079 0.00733471933,40.5155925 L0.00733471933,46.1039501 C0.00733471933,48.4187526 1.88380042,50.2952183 4.19860291,50.2952183 L9.7869605,50.2952183 L9.7869605,64.3778794 C4.44012474,65.1420873 0.725264033,70.0959917 1.48947193,75.4428274 C2.25367983,80.7896632 7.2075842,84.5045239 12.55442,83.740316 C16.8567568,83.125422 20.2370146,79.7449896 20.8519085,75.4428274 L32.252158,75.4428274 C33.0237006,80.7886154 37.9828441,84.4966653 43.328632,83.7251227 C48.67442,82.95358 52.3824699,77.9944366 51.6109272,72.6486486 C50.8393846,67.3028607 45.8802412,63.5948108 40.5344532,64.3663534 C36.2429439,64.9857879 32.8715925,68.3571393 32.252158,72.6486486 L20.8519085,72.6486486 C20.2291559,68.3651726 16.8646154,65.000632 12.5811393,64.3778794 L12.5811393,50.2952183 L18.1694969,50.2952183 C20.4842994,50.2952183 22.3607651,48.4187526 22.3607651,46.1039501 L22.3607651,44.7068607 L30.7433015,44.7068607 L30.7433015,46.1039501 C30.7433015,48.4187526 32.6197672,50.2952183 34.9345696,50.2952183 L48.9054636,50.2952183 C51.2202661,50.2952183 53.0967318,48.4187526 53.0967318,46.1039501 L53.0967318,44.7068607 L61.4792682,44.7068607 L61.4792682,46.1039501 C61.4792682,48.4187526 63.3557339,50.2952183 65.6705364,50.2952183 L71.258894,50.2952183 L71.258894,64.3778794 C65.913106,65.149422 62.2050561,70.1085655 62.9765988,75.4543534 C63.7481414,80.8001414 68.7072848,84.5081913 74.0530728,83.7366486 C79.3988607,82.965106 83.1069106,78.0059626 82.335368,72.6601746 C81.7159335,68.3686653 78.3445821,64.9973139 74.0530728,64.3778794 L74.0530728,50.2952183 L79.6414304,50.2952183 C81.9562328,50.2952183 83.8326985,48.4187526 83.8326985,46.1039501 L83.8326985,40.5155925 C83.8326985,38.20079 81.9562328,36.3243243 79.6414304,36.3243243 Z M41.9200166,67.0602911 C45.7779044,67.0602911 48.9054636,70.1878503 48.9054636,74.045738 C48.9054636,77.9036258 45.7779044,81.031185 41.9200166,81.031185 C38.0621289,81.031185 34.9345696,77.9036258 34.9345696,74.045738 C34.9391102,70.1897713 38.0638753,67.0648316 41.9200166,67.0602911 Z M18.1694969,74.045738 C18.1694969,77.9036258 15.0419376,81.031185 11.1840499,81.031185 C7.32616216,81.031185 4.19860291,77.9036258 4.19860291,74.045738 C4.19860291,70.1878503 7.32616216,67.0602911 11.1840499,67.0602911 C15.0400166,67.0648316 18.1647817,70.1897713 18.1694969,74.045738 Z M19.5665863,46.1039501 C19.5665863,46.8754927 18.9410395,47.5010395 18.1694969,47.5010395 L4.19860291,47.5010395 C3.42706029,47.5010395 2.80151351,46.8754927 2.80151351,46.1039501 L2.80151351,40.5155925 C2.80151351,39.7440499 3.42706029,39.1185031 4.19860291,39.1185031 L18.1694969,39.1185031 C18.9410395,39.1185031 19.5665863,39.7440499 19.5665863,40.5155925 L19.5665863,46.1039501 Z M30.7433015,13.970894 C29.9717588,13.970894 29.3462121,13.3453472 29.3462121,12.5738046 L29.3462121,4.19126819 C29.3462121,3.41972557 29.9717588,2.79417879 30.7433015,2.79417879 L53.0967318,2.79417879 C53.8682744,2.79417879 54.4938212,3.41972557 54.4938212,4.19126819 L54.4938212,12.5738046 C54.4938212,13.3453472 53.8682744,13.970894 53.0967318,13.970894 L30.7433015,13.970894 Z M29.5725405,26.5446985 L41.9200166,22.4288732 L54.2674927,26.5446985 L41.9200166,30.6605239 L29.5725405,26.5446985 Z M50.302553,46.1039501 C50.302553,46.8754927 49.6770062,47.5010395 48.9054636,47.5010395 L34.9345696,47.5010395 C34.163027,47.5010395 33.5374802,46.8754927 33.5374802,46.1039501 L33.5374802,40.5155925 C33.5374802,39.7440499 34.163027,39.1185031 34.9345696,39.1185031 L48.9054636,39.1185031 C49.6770062,39.1185031 50.302553,39.7440499 50.302553,40.5155925 L50.302553,46.1039501 Z M61.4792682,40.5155925 L61.4792682,41.9126819 L53.0967318,41.9126819 L53.0967318,40.5155925 C53.0967318,38.20079 51.2202661,36.3243243 48.9054636,36.3243243 L43.317106,36.3243243 L43.317106,33.1389605 L58.9100208,27.9417879 L71.258894,27.9417879 L71.258894,36.3243243 L65.6705364,36.3243243 C63.3557339,36.3243243 61.4792682,38.20079 61.4792682,40.5155925 Z M79.6414304,74.045738 C79.6414304,77.9036258 76.5138711,81.031185 72.6559834,81.031185 C68.7980956,81.031185 65.6705364,77.9036258 65.6705364,74.045738 C65.6705364,70.1878503 68.7980956,67.0602911 72.6559834,67.0602911 C76.5119501,67.0648316 79.6367152,70.1897713 79.6414304,74.045738 Z M81.0385198,46.1039501 C81.0385198,46.8754927 80.412973,47.5010395 79.6414304,47.5010395 L65.6705364,47.5010395 C64.8989938,47.5010395 64.273447,46.8754927 64.273447,46.1039501 L64.273447,40.5155925 C64.273447,39.7440499 64.8989938,39.1185031 65.6705364,39.1185031 L79.6414304,39.1185031 C80.412973,39.1185031 81.0385198,39.7440499 81.0385198,40.5155925 L81.0385198,46.1039501 Z" id="Shape"></path>
            </g>
            <text id="Strategy" font-family="Circular-Book, Circular" font-size="34" font-weight="300">
                <tspan x="0" y="138">Strategy</tspan>
            </text>
        </g>
        <g id="Group-3" transform="translate(124.000000, 537.000000)" fill="#4630EB">
            <text id="Wireframes" font-family="Circular-Book, Circular" font-size="34" font-weight="300">
                <tspan x="3.75" y="138">Wireframes</tspan>
            </text>
            <g id="002-wireframe" transform="translate(51.000000, 0.000000)" fill-rule="nonzero">
                <path d="M74.8125,7.0546875 C73.906875,7.0546875 73.171875,7.7896875 73.171875,8.6953125 C73.171875,9.6009375 73.906875,10.3359375 74.8125,10.3359375 C75.718125,10.3359375 76.453125,9.6009375 76.453125,8.6953125 C76.453125,7.7896875 75.718125,7.0546875 74.8125,7.0546875 Z" id="Shape"></path>
                <path d="M64.96875,7.0546875 C64.063125,7.0546875 63.328125,7.7896875 63.328125,8.6953125 C63.328125,9.6009375 64.063125,10.3359375 64.96875,10.3359375 C65.874375,10.3359375 66.609375,9.6009375 66.609375,8.6953125 C66.609375,7.7896875 65.874375,7.0546875 64.96875,7.0546875 Z" id="Shape"></path>
                <path d="M55.125,7.0546875 C54.219375,7.0546875 53.484375,7.7896875 53.484375,8.6953125 C53.484375,9.6009375 54.219375,10.3359375 55.125,10.3359375 C56.030625,10.3359375 56.765625,9.6009375 56.765625,8.6953125 C56.765625,7.7896875 56.030625,7.0546875 55.125,7.0546875 Z" id="Shape"></path>
                <path d="M45.28125,50.6953125 C44.375625,50.6953125 43.640625,51.4303125 43.640625,52.3359375 C43.640625,53.2415625 44.375625,53.9765625 45.28125,53.9765625 C46.186875,53.9765625 46.921875,53.2415625 46.921875,52.3359375 C46.921875,51.4303125 46.186875,50.6953125 45.28125,50.6953125 Z" id="Shape"></path>
                <path d="M45.28125,60.5390625 C44.375625,60.5390625 43.640625,61.2740625 43.640625,62.1796875 C43.640625,63.0853125 44.375625,63.8203125 45.28125,63.8203125 C46.186875,63.8203125 46.921875,63.0853125 46.921875,62.1796875 C46.921875,61.2740625 46.186875,60.5390625 45.28125,60.5390625 Z" id="Shape"></path>
                <path d="M45.28125,70.3828125 C44.375625,70.3828125 43.640625,71.1178125 43.640625,72.0234375 C43.640625,72.9290625 44.375625,73.6640625 45.28125,73.6640625 C46.186875,73.6640625 46.921875,72.9290625 46.921875,72.0234375 C46.921875,71.1178125 46.186875,70.3828125 45.28125,70.3828125 Z" id="Shape"></path>
                <path d="M79.078125,0 L4.921875,0 C2.20795312,0 0,2.20795312 0,4.921875 L0,79.078125 C0,81.7920469 2.20795312,84 4.921875,84 L79.078125,84 C81.7920469,84 84,81.7920469 84,79.078125 L84,4.921875 C84,2.20795312 81.7920469,0 79.078125,0 Z M80.71875,79.078125 C80.71875,79.9827656 79.9827656,80.71875 79.078125,80.71875 L4.921875,80.71875 C4.01723438,80.71875 3.28125,79.9827656 3.28125,79.078125 L3.28125,17.390625 L80.71875,17.390625 L80.71875,79.078125 Z M80.71875,14.109375 L3.28125,14.109375 L3.28125,4.921875 C3.28125,4.01723438 4.01723438,3.28125 4.921875,3.28125 L79.078125,3.28125 C79.9827656,3.28125 80.71875,4.01723438 80.71875,4.921875 L80.71875,14.109375 Z" id="Shape"></path>
                <path d="M71.53125,23.953125 L12.46875,23.953125 C12.4626797,23.953125 12.4569375,23.9539453 12.4508672,23.9539453 C12.4134609,23.9542734 12.3765469,23.9567344 12.3396328,23.9595234 C12.3215859,23.961 12.303375,23.9618203 12.2854922,23.9637891 C12.2515313,23.9675625 12.2180625,23.9733047 12.1845938,23.9792109 C12.1635938,23.9828203 12.1425938,23.9861016 12.1219219,23.9905312 C12.0935391,23.9967656 12.0656484,24.0044766 12.0377578,24.0121875 C12.0131484,24.0189141 11.9882109,24.0251484 11.9640938,24.0330234 C11.9406328,24.0405703 11.9176641,24.0497578 11.8945312,24.0584531 C11.867625,24.068625 11.8403906,24.0783047 11.8141406,24.0897891 C11.7928125,24.0991406 11.7723047,24.1098047 11.7514688,24.1199766 C11.7250547,24.1327734 11.6984766,24.1454063 11.6728828,24.1595156 C11.6508984,24.1716563 11.6297344,24.1854375 11.6084062,24.1987266 C11.5856016,24.2128359 11.5626328,24.2262891 11.5406484,24.2413828 C11.5163672,24.2581172 11.4930703,24.2764922 11.4697734,24.2945391 C11.4522188,24.3081563 11.4341719,24.3209531 11.4171094,24.3352266 C11.3911875,24.3568828 11.3667422,24.3801797 11.3421328,24.4034766 C11.3290078,24.4159453 11.3152266,24.4277578 11.3025938,24.4407188 C11.2776563,24.4659844 11.2541953,24.4927266 11.2307344,24.5197969 C11.2195781,24.5325938 11.2079297,24.5448984 11.1972656,24.5580234 C11.1759375,24.5842734 11.1560859,24.6118359 11.1363984,24.6395625 C11.1249141,24.6554766 11.1129375,24.6710625 11.1021094,24.6874688 C11.0857031,24.7120781 11.0709375,24.7378359 11.0558438,24.7635938 C11.0432109,24.7850859 11.03025,24.80625 11.0186016,24.8283984 C11.0072813,24.8500547 10.9971094,24.8725313 10.9866094,24.8946797 C10.9734844,24.9225703 10.9601953,24.9504609 10.9485469,24.9791719 C10.9408359,24.9980391 10.9344375,25.0175625 10.9273828,25.0369219 C10.9155703,25.0697344 10.9040859,25.1027109 10.8942422,25.1365078 C10.8924375,25.1427422 10.8898125,25.1486484 10.8881719,25.1548828 C10.8842344,25.1689922 10.8822656,25.1831016 10.8786563,25.1972109 C10.8706172,25.2292031 10.8630703,25.2611953 10.857,25.2938438 C10.8520781,25.3202578 10.8484687,25.3466719 10.8448594,25.3730859 C10.8414141,25.3990078 10.8378047,25.4249297 10.8355078,25.4511797 C10.8325547,25.4848125 10.8312422,25.5181172 10.8304219,25.5515859 C10.8299297,25.5655312 10.828125,25.5794766 10.828125,25.59375 L10.828125,42 C10.828125,42.9059531 11.5626328,43.640625 12.46875,43.640625 L71.5250156,43.640625 C71.5273125,43.640625 71.5297734,43.6411172 71.5320703,43.6411172 C71.5852266,43.6411172 71.6378906,43.6376719 71.6902266,43.6325859 C71.7007266,43.6316016 71.7110625,43.6299609 71.7213984,43.6286484 C71.7607734,43.6240547 71.7996562,43.6181484 71.838375,43.6107656 C71.8549453,43.6076484 71.8713516,43.6042031 71.8877578,43.6004297 C71.91975,43.593375 71.9514141,43.5850078 71.98275,43.5759844 C72.0009609,43.5707344 72.0191719,43.5658125 72.0370547,43.5600703 C72.0687188,43.5497344 72.0997266,43.5379219 72.1305703,43.5259453 C72.1456641,43.5200391 72.16125,43.5149531 72.1761797,43.5085547 C72.2188359,43.4903438 72.2605078,43.47 72.3015234,43.4481797 C72.3184219,43.4391563 72.3345,43.4291484 72.3509063,43.4196328 C72.3773203,43.404375 72.4035703,43.3887891 72.429,43.3720547 C72.44475,43.3617188 72.4601719,43.3508906 72.4754297,43.3400625 C72.5015156,43.3216875 72.5271094,43.3026562 72.5520469,43.2828047 C72.5648437,43.2724688 72.5778047,43.2622969 72.5902734,43.2516328 C72.6186563,43.2276797 72.6460547,43.2024141 72.6727969,43.1764922 C72.6808359,43.1686172 72.6892031,43.1612344 72.6972422,43.1531953 C72.767625,43.0821563 72.8319375,43.0045547 72.8888672,42.9207188 C72.893625,42.9138281 72.8977266,42.9064453 72.9023203,42.8995547 C72.9243047,42.8660859 72.9451406,42.8319609 72.9646641,42.7968516 C72.9733594,42.7812656 72.9812344,42.7651875 72.9894375,42.7492734 C73.0032188,42.7223672 73.0165078,42.6951328 73.0289766,42.6672422 C73.0381641,42.6467344 73.0468594,42.6258984 73.0550625,42.6048984 C73.0645781,42.5806172 73.0736016,42.5560078 73.0821328,42.5310703 C73.0901719,42.5074453 73.0980469,42.4839844 73.1051016,42.4600313 C73.1072344,42.4529766 73.1098594,42.44625 73.1119922,42.4390313 C73.1159297,42.4249219 73.1178984,42.4108125 73.1215078,42.3967031 C73.1295469,42.3647109 73.1370937,42.3327188 73.1431641,42.3000703 C73.1480859,42.2736563 73.1516953,42.2472422 73.1553047,42.2208281 C73.15875,42.1949063 73.1623594,42.1689844 73.1646563,42.1427344 C73.1676094,42.1091016 73.1689219,42.0757969 73.1697422,42.0423281 C73.1700703,42.0280547 73.171875,42.0142734 73.171875,41.9998359 L73.171875,25.59375 C73.171875,24.6877969 72.4373672,23.953125 71.53125,23.953125 Z M14.109375,40.359375 L14.109375,27.7521563 L59.4954609,40.359375 L14.109375,40.359375 Z M69.890625,39.8415938 L24.5045391,27.234375 L69.890625,27.234375 L69.890625,39.8415938 Z" id="Shape"></path>
                <path d="M35.4375,50.6953125 L12.46875,50.6953125 C12.4510313,50.6953125 12.4339688,50.6974453 12.4164141,50.6979375 C12.3849141,50.6989219 12.3534141,50.6999063 12.3219141,50.7026953 C12.2956641,50.7049922 12.2699063,50.7089297 12.2441484,50.712375 C12.2175703,50.7159844 12.1909922,50.7195938 12.1645781,50.7245156 C12.1365234,50.7297656 12.109125,50.7363281 12.0817266,50.7430547 C12.0576094,50.7489609 12.0334922,50.7547031 12.0095391,50.7615938 C11.9823047,50.7694688 11.9555625,50.7786563 11.9288203,50.7880078 C11.9048672,50.796375 11.8810781,50.8047422 11.8574531,50.8140938 C11.8326797,50.8241016 11.8083984,50.8350938 11.7841172,50.84625 C11.7593438,50.8575703 11.7347344,50.8690547 11.7104531,50.8816875 C11.6884688,50.8931719 11.6671406,50.9054766 11.6458125,50.9179453 C11.6207109,50.9325469 11.5959375,50.9471484 11.5714922,50.9630625 C11.5514766,50.9761875 11.5321172,50.9902969 11.5125938,51.0042422 C11.4889688,51.0213047 11.4653438,51.0383672 11.4425391,51.0567422 C11.4225234,51.0728203 11.4033281,51.0900469 11.3841328,51.1069453 C11.363625,51.1249922 11.3431172,51.142875 11.3234297,51.1620703 C11.3019375,51.1830703 11.2819219,51.2050547 11.2615781,51.2272031 C11.2487813,51.2411484 11.2351641,51.2536172 11.2228594,51.2680547 C11.2195781,51.2719922 11.2169531,51.2760938 11.2136719,51.2800313 C11.1928359,51.3048047 11.1734766,51.3310547 11.1541172,51.3569766 C11.1409922,51.3745313 11.1270469,51.3917578 11.1145781,51.4098047 C11.0971875,51.4352344 11.0817656,51.4618125 11.0658516,51.4882266 C11.053875,51.5080781 11.04075,51.5276016 11.0295938,51.5477813 C11.0163047,51.5720625 11.0048203,51.5976562 10.9926797,51.6227578 C10.9815234,51.6458906 10.9692188,51.6688594 10.9592109,51.6923203 C10.9493672,51.7154531 10.9414922,51.7397344 10.9326328,51.7633594 C10.9227891,51.7897734 10.912125,51.8158594 10.9035938,51.8426016 C10.8967031,51.86475 10.8916172,51.8877187 10.8857109,51.9101953 C10.8778359,51.9393984 10.8693047,51.9686016 10.8630703,51.9981328 C10.8586406,52.0191328 10.8561797,52.040625 10.8525703,52.0619531 C10.8471563,52.0941094 10.8414141,52.1259375 10.8378047,52.1582578 C10.8356719,52.1787656 10.8351797,52.1996016 10.8337031,52.2202734 C10.8314063,52.2539062 10.8289453,52.2875391 10.8286172,52.3211719 C10.8286172,52.3260937 10.8279609,52.3308516 10.8279609,52.3357734 L10.8279609,72.0232734 C10.8279609,72.9292266 11.5624688,73.6638984 12.4685859,73.6638984 L35.4373359,73.6638984 C35.49525,73.6638984 35.5525078,73.6606172 35.6089453,73.654875 C35.6123906,73.6545469 35.6156719,73.6537266 35.6191172,73.6532344 C35.6726016,73.6473281 35.7254297,73.639125 35.7772734,73.6281328 C35.7876094,73.626 35.7977812,73.6225547 35.8081172,73.6200937 C35.8525781,73.6097578 35.8967109,73.5984375 35.9396953,73.5846562 C35.9562656,73.5794062 35.9723437,73.5725156 35.98875,73.5666094 C36.0245156,73.5538125 36.0602812,73.5406875 36.0948984,73.5255937 C36.1157344,73.5165703 36.13575,73.5060703 36.1562578,73.4960625 C36.185625,73.4817891 36.2148281,73.4671875 36.2430469,73.4512734 C36.2651953,73.4388047 36.2866875,73.4251875 36.3083437,73.4115703 C36.3342656,73.3953281 36.3596953,73.3785937 36.3844687,73.3610391 C36.4056328,73.3459453 36.4264687,73.3303594 36.4469766,73.3142812 C36.4719141,73.2947578 36.4961953,73.2744141 36.5199844,73.2534141 C36.5383594,73.2371719 36.5565703,73.2210937 36.5742891,73.2040312 C36.6010312,73.1782734 36.6262969,73.1512031 36.6512344,73.1236406 C36.6614062,73.1123203 36.6727266,73.1024766 36.6827344,73.0908281 C36.6860156,73.0868906 36.6886406,73.0827891 36.6919219,73.0788516 C36.7127578,73.0540781 36.7321172,73.0278281 36.7514766,73.0019062 C36.7646016,72.9843516 36.7785469,72.967125 36.7910156,72.9490781 C36.8084062,72.9236484 36.8238281,72.8970703 36.8397422,72.8706562 C36.8517187,72.8508047 36.8648437,72.8312812 36.876,72.8111016 C36.8892891,72.7868203 36.9007734,72.7612266 36.9129141,72.736125 C36.9240703,72.7129922 36.936375,72.6900234 36.9463828,72.6665625 C36.9562266,72.6434297 36.9641016,72.6191484 36.9729609,72.5955234 C36.9828047,72.5691094 36.9934687,72.5430234 37.002,72.5162812 C37.0088906,72.4941328 37.0139766,72.4711641 37.0198828,72.4486875 C37.0277578,72.4194844 37.0362891,72.3902813 37.0425234,72.36075 C37.0469531,72.33975 37.0494141,72.3182578 37.0530234,72.2969297 C37.0584375,72.2647734 37.0641797,72.2329453 37.0677891,72.200625 C37.0699219,72.1801172 37.0704141,72.1592812 37.0718906,72.1386094 C37.0741875,72.1049766 37.0766484,72.0713437 37.0769766,72.0377109 C37.0769766,72.0327891 37.0776328,72.0280312 37.0776328,72.0231094 L37.0776328,52.3359375 C37.078125,51.4299844 36.3436172,50.6953125 35.4375,50.6953125 Z M14.109375,70.3828125 L14.109375,55.9029844 L31.0023984,70.3828125 L14.109375,70.3828125 Z M33.796875,68.4563906 L16.9038516,53.9765625 L33.796875,53.9765625 L33.796875,68.4563906 Z" id="Shape"></path>
                <path d="M71.53125,50.6953125 L51.84375,50.6953125 C50.9376328,50.6953125 50.203125,51.4299844 50.203125,52.3359375 C50.203125,53.2418906 50.9376328,53.9765625 51.84375,53.9765625 L71.53125,53.9765625 C72.4373672,53.9765625 73.171875,53.2418906 73.171875,52.3359375 C73.171875,51.4299844 72.4373672,50.6953125 71.53125,50.6953125 Z" id="Shape"></path>
                <path d="M71.53125,60.5390625 L51.84375,60.5390625 C50.9376328,60.5390625 50.203125,61.2737344 50.203125,62.1796875 C50.203125,63.0856406 50.9376328,63.8203125 51.84375,63.8203125 L71.53125,63.8203125 C72.4373672,63.8203125 73.171875,63.0856406 73.171875,62.1796875 C73.171875,61.2737344 72.4373672,60.5390625 71.53125,60.5390625 Z" id="Shape"></path>
                <path d="M71.53125,70.3828125 L51.84375,70.3828125 C50.9376328,70.3828125 50.203125,71.1174844 50.203125,72.0234375 C50.203125,72.9293906 50.9376328,73.6640625 51.84375,73.6640625 L71.53125,73.6640625 C72.4373672,73.6640625 73.171875,72.9293906 73.171875,72.0234375 C73.171875,71.1174844 72.4373672,70.3828125 71.53125,70.3828125 Z" id="Shape"></path>
            </g>
        </g>
        <g id="Group-4" transform="translate(131.000000, 781.000000)" fill="#4630EB">
            <text id="Design" font-family="Circular-Book, Circular" font-size="34" font-weight="300">
                <tspan x="33.681" y="136">Design</tspan>
            </text>
            <g id="001-computer-graphic" transform="translate(45.000000, 0.000000)" fill-rule="nonzero">
                <path d="M80.0625,0 L3.9375,0 C1.76285156,0 0,1.76285156 0,3.9375 L0,61.6875 C0,62.4123281 0.587671875,63 1.3125,63 L31.21125,63 L29.11125,73.5 L26.25,73.5 C25.5251719,73.5 24.9375,74.0876719 24.9375,74.8125 L24.9375,78.75 L22.3125,78.75 L22.3125,81.375 L61.6875,81.375 L61.6875,78.75 L59.0625,78.75 L59.0625,74.8125 C59.0625,74.0876719 58.4748281,73.5 57.75,73.5 L54.8866172,73.5 L52.7866172,63 L82.6875,63 C83.4123281,63 84,62.4123281 84,61.6875 L84,3.9375 C84,1.76285156 82.2371484,0 80.0625,0 Z M53.8125,76.125 L56.4375,76.125 L56.4375,78.75 L27.5625,78.75 L27.5625,76.125 L30.1875,76.125 L53.8125,76.125 Z M31.78875,73.5 L33.8867812,63 L50.11125,63 L52.21125,73.5 L31.78875,73.5 Z M81.375,60.375 L2.625,60.375 L2.625,48.5625 L21,48.5625 L28.875,48.5625 L36.75,48.5625 L44.625,48.5625 L52.5,48.5625 L63,48.5625 L81.375,48.5625 L81.375,60.375 Z M63,11.8125 L52.5,11.8125 C51.7751719,11.8125 51.1875,12.4001719 51.1875,13.125 L51.1875,24.9375 L53.8125,24.9375 L53.8125,14.4375 L61.6875,14.4375 L61.6875,19.6875 L56.4375,19.6875 L56.4375,22.3125 L61.6875,22.3125 L61.6875,28.875 L56.4375,28.875 L56.4375,31.5 L61.6875,31.5 L61.6875,38.0625 L56.4375,38.0625 L56.4375,40.6875 L61.6875,40.6875 L61.6875,45.9375 L53.8125,45.9375 L53.8125,35.4375 L51.1875,35.4375 L51.1875,45.9375 L45.9375,45.9375 L45.9375,39.375 C45.9375,34.0186875 52.44225,32.841375 52.71525,32.794125 C52.8770156,32.7670547 53.0322188,32.7099609 53.1729844,32.6256328 C53.7949453,32.2532109 53.9972344,31.4471719 53.6248125,30.825375 L41.8123125,11.137875 C41.7171563,10.9990781 41.5972266,10.8791484 41.4584297,10.7839922 C40.8372891,10.35825 39.9884297,10.5165703 39.5626875,11.137875 L27.7501875,30.825375 C27.6663516,30.9651562 27.6092578,31.119375 27.5820234,31.2801563 C27.4604531,31.9948125 27.9411563,32.6725547 28.6558125,32.794125 C28.93275,32.841375 35.4375,34.0186875 35.4375,39.375 L35.4375,45.9375 L30.1875,45.9375 L30.1875,35.4375 L27.5625,35.4375 L27.5625,45.9375 L26.25,45.9375 L26.25,22.3125 L27.5625,22.3125 L27.5625,24.9375 L30.1875,24.9375 L30.1875,21 C30.1878281,20.8221562 30.1517344,20.6461172 30.0811875,20.482875 L26.1436875,11.295375 C26.0109609,10.9859531 25.764375,10.7393672 25.4549531,10.6066406 C24.7888594,10.3208437 24.0171094,10.6292813 23.7313125,11.295375 L19.7938125,20.482875 C19.7232656,20.6461172 19.6871719,20.8221563 19.6875,21 L19.6875,45.9375 L9.1875,45.9375 L9.1875,9.1875 L74.8125,9.1875 L74.8125,45.9375 L64.3125,45.9375 L64.3125,13.125 C64.3125,12.4001719 63.7248281,11.8125 63,11.8125 Z M38.0625,42 L38.0625,40.6875 L43.3125,40.6875 L43.3125,42 L38.0625,42 Z M43.3125,44.625 L43.3125,45.9375 L38.0625,45.9375 L38.0625,44.625 L43.3125,44.625 Z M37.9666875,38.0625 C37.338,33.88875 33.7640625,31.63125 30.9054375,30.6665625 L39.375,16.5514453 L39.375,27.5625 L42,27.5625 L42,16.5514453 L50.4695625,30.6665625 C47.6083125,31.6246875 44.037,33.88875 43.4083125,38.0625 L37.9666875,38.0625 Z M22.9876172,19.6875 L24.9375,15.138375 L26.8873828,19.6875 L22.9876172,19.6875 Z M23.625,22.3125 L23.625,45.9375 L22.3125,45.9375 L22.3125,22.3125 L23.625,22.3125 Z M81.375,45.9375 L77.4375,45.9375 L77.4375,7.875 C77.4375,7.15017187 76.8498281,6.5625 76.125,6.5625 L7.875,6.5625 C7.15017187,6.5625 6.5625,7.15017187 6.5625,7.875 L6.5625,45.9375 L2.625,45.9375 L2.625,3.9375 C2.625,3.21267188 3.21267187,2.625 3.9375,2.625 L80.0625,2.625 C80.7873281,2.625 81.375,3.21267188 81.375,3.9375 L81.375,45.9375 Z" id="Shape"></path>
                <path d="M42,49.875 C39.8253516,49.875 38.0625,51.6378516 38.0625,53.8125 C38.0625,55.9871484 39.8253516,57.75 42,57.75 C44.1746484,57.75 45.9375,55.9871484 45.9375,53.8125 C45.9375,51.6378516 44.1746484,49.875 42,49.875 Z M42,55.125 C41.2751719,55.125 40.6875,54.5373281 40.6875,53.8125 C40.6875,53.0876719 41.2751719,52.5 42,52.5 C42.7248281,52.5 43.3125,53.0876719 43.3125,53.8125 C43.3125,54.5373281 42.7248281,55.125 42,55.125 Z" id="Shape"></path>
            </g>
        </g>
        <g id="Group-5" transform="translate(130.000000, 1023.000000)">
            <text id="Prototype" font-family="Circular-Book, Circular" font-size="34" font-weight="300" fill="#4630EB">
                <tspan x="10.408" y="138">Prototype</tspan>
            </text>
            <g id="proto" transform="translate(46.000000, 0.000000)">
                <polygon id="Triangle" fill="#4630EB" transform="translate(72.141176, 7.905882) rotate(90.000000) translate(-72.141176, -7.905882) " points="72.1411765 -2.06057393e-13 80.0470588 15.8117647 64.2352941 15.8117647"></polygon>
                <circle id="Oval-2" stroke="#4630EB" stroke-width="1.5" fill="#ECEAFD" cx="7.90588235" cy="76.0941176" r="7.90588235"></circle>
                <path d="M15.8117647,76.4967895 C24.8828597,78.6359817 31.1995853,74.9139687 34.7619415,65.3307506 C40.1054759,50.9559234 31.264829,4.11606929 66.2117647,7.04949497" id="Path-4" stroke="#4630EB" stroke-width="1.5"></path>
            </g>
        </g>
        <g id="001-right-arrow" opacity="0.799944196" transform="translate(217.000000, 247.500000) rotate(90.000000) translate(-217.000000, -247.500000) translate(197.000000, 237.000000)" fill="#4630EB" fill-rule="nonzero">
            <path d="M39.6588694,9.27200658 L30.585731,0.340559211 C30.2598051,-0.0340789474 29.6870175,-0.077752193 29.3064327,0.243157895 C28.925848,0.563991228 28.8814815,1.12782895 29.2074854,1.50246711 C29.2378947,1.53739035 29.2709552,1.57001096 29.3064327,1.59986842 L36.8280702,9.01296053 L0.907290448,9.01296053 C0.406237817,9.01296053 0,9.41285088 0,9.90615132 C0,10.3994518 0.406237817,10.7992654 0.907290448,10.7992654 L36.8280702,10.7992654 L29.3064327,18.2033772 C28.925848,18.5242105 28.8814815,19.0880482 29.2074854,19.4626864 C29.5334893,19.8373246 30.1061988,19.8809978 30.4867836,19.5600877 C30.5222612,19.5301535 30.5553996,19.4976096 30.585731,19.4626864 L39.6589474,10.531239 C40.0106823,10.1830044 40.0106823,9.62039474 39.6588694,9.27200658 Z" id="Shape"></path>
        </g>
        <g id="001-right-arrow-copy" opacity="0.799944196" transform="translate(217.000000, 492.500000) rotate(90.000000) translate(-217.000000, -492.500000) translate(197.000000, 482.000000)" fill="#4630EB" fill-rule="nonzero">
            <path d="M39.6588694,9.27200658 L30.585731,0.340559211 C30.2598051,-0.0340789474 29.6870175,-0.077752193 29.3064327,0.243157895 C28.925848,0.563991228 28.8814815,1.12782895 29.2074854,1.50246711 C29.2378947,1.53739035 29.2709552,1.57001096 29.3064327,1.59986842 L36.8280702,9.01296053 L0.907290448,9.01296053 C0.406237817,9.01296053 0,9.41285088 0,9.90615132 C0,10.3994518 0.406237817,10.7992654 0.907290448,10.7992654 L36.8280702,10.7992654 L29.3064327,18.2033772 C28.925848,18.5242105 28.8814815,19.0880482 29.2074854,19.4626864 C29.5334893,19.8373246 30.1061988,19.8809978 30.4867836,19.5600877 C30.5222612,19.5301535 30.5553996,19.4976096 30.585731,19.4626864 L39.6589474,10.531239 C40.0106823,10.1830044 40.0106823,9.62039474 39.6588694,9.27200658 Z" id="Shape"></path>
        </g>
        <g id="001-right-arrow-copy-2" opacity="0.799944196" transform="translate(217.000000, 736.500000) rotate(90.000000) translate(-217.000000, -736.500000) translate(197.000000, 726.000000)" fill="#4630EB" fill-rule="nonzero">
            <path d="M39.6588694,9.27200658 L30.585731,0.340559211 C30.2598051,-0.0340789474 29.6870175,-0.077752193 29.3064327,0.243157895 C28.925848,0.563991228 28.8814815,1.12782895 29.2074854,1.50246711 C29.2378947,1.53739035 29.2709552,1.57001096 29.3064327,1.59986842 L36.8280702,9.01296053 L0.907290448,9.01296053 C0.406237817,9.01296053 0,9.41285088 0,9.90615132 C0,10.3994518 0.406237817,10.7992654 0.907290448,10.7992654 L36.8280702,10.7992654 L29.3064327,18.2033772 C28.925848,18.5242105 28.8814815,19.0880482 29.2074854,19.4626864 C29.5334893,19.8373246 30.1061988,19.8809978 30.4867836,19.5600877 C30.5222612,19.5301535 30.5553996,19.4976096 30.585731,19.4626864 L39.6589474,10.531239 C40.0106823,10.1830044 40.0106823,9.62039474 39.6588694,9.27200658 Z" id="Shape"></path>
        </g>
        <g id="001-right-arrow-copy-3" opacity="0.799944196" transform="translate(217.000000, 978.500000) rotate(90.000000) translate(-217.000000, -978.500000) translate(197.000000, 968.000000)" fill="#4630EB" fill-rule="nonzero">
            <path d="M39.6588694,9.27200658 L30.585731,0.340559211 C30.2598051,-0.0340789474 29.6870175,-0.077752193 29.3064327,0.243157895 C28.925848,0.563991228 28.8814815,1.12782895 29.2074854,1.50246711 C29.2378947,1.53739035 29.2709552,1.57001096 29.3064327,1.59986842 L36.8280702,9.01296053 L0.907290448,9.01296053 C0.406237817,9.01296053 0,9.41285088 0,9.90615132 C0,10.3994518 0.406237817,10.7992654 0.907290448,10.7992654 L36.8280702,10.7992654 L29.3064327,18.2033772 C28.925848,18.5242105 28.8814815,19.0880482 29.2074854,19.4626864 C29.5334893,19.8373246 30.1061988,19.8809978 30.4867836,19.5600877 C30.5222612,19.5301535 30.5553996,19.4976096 30.585731,19.4626864 L39.6589474,10.531239 C40.0106823,10.1830044 40.0106823,9.62039474 39.6588694,9.27200658 Z" id="Shape"></path>
        </g>
    </g>
</svg>