<?xml version="1.0" encoding="UTF-8"?>
<svg width="50px" height="50px" viewBox="0 0 50 50" version="1.1" xmlns="http://www.w3.org/2000/svg" xmlns:xlink="http://www.w3.org/1999/xlink">
    <!-- Generator: Sketch 50.2 (55047) - http://www.bohemiancoding.com/sketch -->
    <title>001-pen</title>
    <desc>Created with Sketch.</desc>
    <defs></defs>
    <g id="Page-1" stroke="none" stroke-width="1" fill="none" fill-rule="evenodd">
        <g id="Home-v2" transform="translate(-185.000000, -2592.000000)" fill="#FFFFFF" fill-rule="nonzero">
            <g id="How-I-help-the-world" transform="translate(135.000000, 2260.000000)">
                <g id="Design" transform="translate(0.000000, 244.000000)">
                    <g id="001-pen" transform="translate(50.000000, 88.000000)">
                        <path d="M42.1875,9.765625 C41.6484375,9.765625 41.2109375,10.203125 41.2109375,10.7421875 C41.2109375,11.28125 41.6484375,11.71875 42.1875,11.71875 C42.7265625,11.71875 43.1640625,11.28125 43.1640625,10.7421875 C43.1640625,10.203125 42.7265625,9.765625 42.1875,9.765625 Z" id="Shape"></path>
                        <path d="M7.8125,9.765625 C7.2734375,9.765625 6.8359375,10.203125 6.8359375,10.7421875 C6.8359375,11.28125 7.2734375,11.71875 7.8125,11.71875 C8.3515625,11.71875 8.7890625,11.28125 8.7890625,10.7421875 C8.7890625,10.203125 8.3515625,9.765625 7.8125,9.765625 Z" id="Shape"></path>
                        <path d="M49.0234375,21.484375 L47.8554688,21.484375 C47.4904297,18.6714844 46.6083984,15.990918 45.2242188,13.5053711 C44.9618164,13.0342773 44.3671875,12.8648438 43.8958984,13.1272461 C43.424707,13.3896484 43.2553711,13.984375 43.5177734,14.4555664 C44.7392578,16.6492188 45.5339844,19.009082 45.8861328,21.484375 L45.1171875,21.484375 C44.577832,21.484375 44.140625,21.921582 44.140625,22.4609375 L44.140625,26.3671875 C44.140625,26.906543 44.577832,27.34375 45.1171875,27.34375 L49.0234375,27.34375 C49.562793,27.34375 50,26.906543 50,26.3671875 L50,22.4609375 C50,21.921582 49.562793,21.484375 49.0234375,21.484375 Z M48.046875,25.390625 L46.09375,25.390625 L46.09375,23.4375 L46.9802734,23.4375 C46.9805664,23.4375 46.980957,23.4375 46.98125,23.4375 C46.9816406,23.4375 46.9819336,23.4375 46.9823242,23.4375 L48.046875,23.4375 L48.046875,25.390625 Z" id="Shape"></path>
                        <path d="M35.740332,28.5762695 C35.7397461,28.5611328 35.7393555,28.5459961 35.7380859,28.5308594 C35.7363281,28.5101563 35.7334961,28.4897461 35.7304687,28.4694336 C35.7286133,28.4569336 35.7271484,28.4444336 35.724707,28.4319336 C35.7202148,28.4080078 35.7143555,28.3845703 35.7082031,28.3612305 C35.7058594,28.3523437 35.7040039,28.343457 35.7013672,28.334668 C35.6926758,28.3054688 35.6825195,28.2768555 35.6711914,28.2488281 C35.6699219,28.2458008 35.669043,28.2425781 35.6677734,28.2395508 C35.6542969,28.2069336 35.6391602,28.1751953 35.6223633,28.1445312 L25.8569336,10.2738281 C25.6857422,9.96054688 25.3571289,9.765625 25,9.765625 C24.6428711,9.765625 24.3142578,9.96054688 24.1430664,10.2739258 L14.3776367,28.1446289 C14.3608398,28.175293 14.3457031,28.2070313 14.3322266,28.2396484 C14.330957,28.2426758 14.3300781,28.2458008 14.3288086,28.2489258 C14.3174805,28.2769531 14.3073242,28.3055664 14.2986328,28.3347656 C14.2959961,28.3435547 14.2941406,28.3524414 14.2917969,28.3613281 C14.2855469,28.384668 14.2797852,28.4080078 14.275293,28.4320313 C14.2729492,28.4444336 14.2714844,28.4569336 14.2695312,28.4695313 C14.2665039,28.4898438 14.2636719,28.5102539 14.2619141,28.530957 C14.2606445,28.5460938 14.2601562,28.5612305 14.259668,28.5763672 C14.2591797,28.5886719 14.2578125,28.6007813 14.2578125,28.6132813 C14.2578125,28.6197266 14.2586914,28.6258789 14.2587891,28.6323242 C14.259082,28.6476563 14.2600586,28.6628906 14.2611328,28.6782227 C14.2624023,28.6976563 14.2639648,28.7169922 14.2664062,28.7361328 C14.2681641,28.7496094 14.2703125,28.7629883 14.2725586,28.7764648 C14.2760742,28.7975586 14.2802734,28.818457 14.2851562,28.8390625 C14.2878906,28.8506836 14.290918,28.8623047 14.2941406,28.8738281 C14.300293,28.8960938 14.3073242,28.9179688 14.3149414,28.9395508 C14.3170898,28.9457031 14.318457,28.9519531 14.3208008,28.9581055 L17.8426758,38.2910156 C17.5601562,38.4310547 17.2988281,38.6170898 17.0692383,38.846582 C16.5157227,39.4000977 16.2109375,40.1357422 16.2109375,40.9179688 C16.2109375,42.1910156 17.0274414,43.2765625 18.1640625,43.6796875 L18.1640625,49.0234375 C18.1640625,49.562793 18.6012695,50 19.140625,50 L30.859375,50 C31.3987305,50 31.8359375,49.562793 31.8359375,49.0234375 L31.8359375,43.6813477 C32.2430664,43.5376953 32.6164062,43.3038086 32.9308594,42.9893555 C33.4842773,42.4358398 33.7890625,41.7001953 33.7890625,40.9179688 C33.7890625,39.7682617 33.1231445,38.7716797 32.1569336,38.2922852 L35.6792969,28.9581055 C35.6816406,28.9519531 35.6830078,28.9457031 35.6851562,28.9395508 C35.6927734,28.9179688 35.6998047,28.8960938 35.705957,28.8738281 C35.7091797,28.8623047 35.7121094,28.8506836 35.7149414,28.8390625 C35.7198242,28.818457 35.7239258,28.7975586 35.7275391,28.7764648 C35.7297852,28.7629883 35.7320312,28.7496094 35.7336914,28.7361328 C35.7361328,28.7169922 35.7376953,28.6976562 35.7389648,28.6782227 C35.7399414,28.6628906 35.7410156,28.6476562 35.7413086,28.6323242 C35.7414062,28.6259766 35.7422852,28.6197266 35.7422852,28.6132812 C35.7421875,28.6007813 35.7408203,28.5886719 35.740332,28.5762695 Z M25,27.6367188 C25.5384766,27.6367188 25.9765625,28.0748047 25.9765625,28.6132812 C25.9765625,29.1517578 25.5384766,29.5898438 25,29.5898438 C24.4615234,29.5898438 24.0234375,29.1517578 24.0234375,28.6132812 C24.0234375,28.0748047 24.4615234,27.6367188 25,27.6367188 Z M29.8828125,48.046875 L20.1171875,48.046875 L20.1171875,43.8476562 L29.8828125,43.8476562 L29.8828125,48.046875 Z M31.549707,41.6082031 C31.3651367,41.7928711 31.1199219,41.8945312 30.859375,41.8945312 L19.140625,41.8945312 C18.6021484,41.8945312 18.1640625,41.4564453 18.1640625,40.9179688 C18.1640625,40.6574219 18.2657227,40.412207 18.450293,40.2277344 C18.6349609,40.0430664 18.8800781,39.9414062 19.140625,39.9414062 L30.852832,39.9414062 C30.8549805,39.9414062 30.8571289,39.9416992 30.8592773,39.9416992 C30.8603516,39.9416992 30.8615234,39.9416016 30.8625977,39.9416016 C31.3996094,39.9433594 31.8360352,40.3805664 31.8360352,40.9179688 C31.8359375,41.1785156 31.7342773,41.4237305 31.549707,41.6082031 Z M30.184082,37.9882812 L19.815918,37.9882812 L16.6466797,29.5898438 L19.140625,29.5898438 C19.6799805,29.5898438 20.1171875,29.1526367 20.1171875,28.6132812 C20.1171875,28.0739258 19.6799805,27.6367188 19.140625,27.6367188 L16.8808594,27.6367188 L24.0234375,14.5658203 L24.0234375,25.8515625 C22.8868164,26.2546875 22.0703125,27.3401367 22.0703125,28.6132812 C22.0703125,30.2287109 23.3845703,31.5429688 25,31.5429688 C26.6154297,31.5429688 27.9296875,30.2287109 27.9296875,28.6132812 C27.9296875,27.3402344 27.1131836,26.2546875 25.9765625,25.8515625 L25.9765625,14.5658203 L33.1191406,27.6367188 L30.859375,27.6367188 C30.3200195,27.6367188 29.8828125,28.0739258 29.8828125,28.6132812 C29.8828125,29.1526367 30.3200195,29.5898438 30.859375,29.5898438 L33.3533203,29.5898438 L30.184082,37.9882812 Z" id="Shape"></path>
                        <path d="M6.10400391,13.1272461 C5.63271484,12.8647461 5.03798828,13.034082 4.77568359,13.5053711 C3.39160156,15.990918 2.50947266,18.6714844 2.14453125,21.484375 L0.9765625,21.484375 C0.437207031,21.484375 0,21.921582 0,22.4609375 L0,26.3671875 C0,26.906543 0.437207031,27.34375 0.9765625,27.34375 L4.8828125,27.34375 C5.42216797,27.34375 5.859375,26.906543 5.859375,26.3671875 L5.859375,22.4609375 C5.859375,21.921582 5.42216797,21.484375 4.8828125,21.484375 L4.11376953,21.484375 C4.46601562,19.009082 5.26064453,16.6492187 6.48212891,14.4555664 C6.74453125,13.984375 6.57529297,13.3896484 6.10400391,13.1272461 Z M3.90625,25.390625 L1.953125,25.390625 L1.953125,23.4375 L3.01767578,23.4375 C3.01806641,23.4375 3.01835938,23.4375 3.01875,23.4375 C3.01904297,23.4375 3.01943359,23.4375 3.01972656,23.4375 L3.90625,23.4375 L3.90625,25.390625 Z" id="Shape"></path>
                        <path d="M47.0703125,0 C45.7972656,0 44.7117188,0.816503906 44.3085938,1.953125 L27.9296875,1.953125 L27.9296875,0.9765625 C27.9296875,0.437207031 27.4924805,0 26.953125,0 L23.046875,0 C22.5075195,0 22.0703125,0.437207031 22.0703125,0.9765625 L22.0703125,1.953125 L5.69140625,1.953125 C5.28828125,0.816503906 4.20273438,0 2.9296875,0 C1.31425781,0 0,1.31425781 0,2.9296875 C0,4.54511719 1.31425781,5.859375 2.9296875,5.859375 C4.20273438,5.859375 5.28828125,5.04287109 5.69140625,3.90625 L15.5091797,3.90625 C13.4262695,4.77783203 11.5161133,5.90927734 9.94384766,7.23476562 C9.53144531,7.58242188 9.47900391,8.19853516 9.82666016,8.61083984 C10.0198242,8.84003906 10.2958984,8.95800781 10.5737305,8.95800781 C10.7959961,8.95800781 11.0194336,8.88261719 11.2026367,8.728125 C14.0045898,6.36601563 18.0032227,4.67900391 22.0703125,4.11318359 L22.0703125,4.8828125 C22.0703125,5.42216797 22.5075195,5.859375 23.046875,5.859375 L26.953125,5.859375 C27.4924805,5.859375 27.9296875,5.42216797 27.9296875,4.8828125 L27.9296875,4.11318359 C31.9967773,4.67900391 35.9954102,6.36601563 38.7973633,8.72802734 C38.9805664,8.88251953 39.2040039,8.95800781 39.4262695,8.95791016 C39.7041992,8.95791016 39.9802734,8.83994141 40.1733398,8.61074219 C40.5210937,8.19853516 40.4685547,7.58242187 40.0561523,7.23476562 C38.4838867,5.90927734 36.5737305,4.77783203 34.4908203,3.90625 L44.3085938,3.90625 C44.7117188,5.04287109 45.797168,5.859375 47.0703125,5.859375 C48.6857422,5.859375 50,4.54511719 50,2.9296875 C50,1.31425781 48.6857422,0 47.0703125,0 Z M2.9296875,3.90625 C2.39121094,3.90625 1.953125,3.46816406 1.953125,2.9296875 C1.953125,2.39121094 2.39121094,1.953125 2.9296875,1.953125 C3.46816406,1.953125 3.90625,2.39121094 3.90625,2.9296875 C3.90625,3.46816406 3.46816406,3.90625 2.9296875,3.90625 Z M25.9765625,2.9296875 L25.9765625,3.01757812 L25.9765625,3.90625 L24.0234375,3.90625 L24.0234375,3.01757812 L24.0234375,2.9296875 L24.0234375,1.953125 L25.9765625,1.953125 L25.9765625,2.9296875 Z M47.0703125,3.90625 C46.5318359,3.90625 46.09375,3.46816406 46.09375,2.9296875 C46.09375,2.39121094 46.5318359,1.953125 47.0703125,1.953125 C47.6087891,1.953125 48.046875,2.39121094 48.046875,2.9296875 C48.046875,3.46816406 47.6087891,3.90625 47.0703125,3.90625 Z" id="Shape"></path>
                    </g>
                </g>
            </g>
        </g>
    </g>
</svg>