<?xml version="1.0" encoding="UTF-8"?>
<svg width="40px" height="40px" viewBox="0 0 40 40" version="1.1" xmlns="http://www.w3.org/2000/svg" xmlns:xlink="http://www.w3.org/1999/xlink">
    <!-- Generator: Sketch 50.2 (55047) - http://www.bohemiancoding.com/sketch -->
    <title>research</title>
    <desc>Created with Sketch.</desc>
    <defs></defs>
    <g id="Page-1" stroke="none" stroke-width="1" fill="none" fill-rule="evenodd">
        <g id="Home-v2" transform="translate(-226.000000, -3002.000000)" fill="#4630EB" fill-rule="nonzero">
            <g id="How-I-help-the-world" transform="translate(135.000000, 2260.000000)">
                <g id="My-process" transform="translate(0.000000, 704.000000)">
                    <g id="Group-4" transform="translate(60.000000, 38.000000)">
                        <g id="research" transform="translate(31.000000, 0.000000)">
                            <path d="M30.8334375,0 L2.50007813,0 C1.119375,0 7.8125e-05,1.11929688 7.8125e-05,2.5 L7.8125e-05,22.5 C7.8125e-05,23.8807031 1.119375,25 2.50007813,25 L13.3334375,25 L13.3334375,23.3333594 L2.50007813,23.3333594 C2.03984375,23.3333594 1.66671875,22.9602344 1.66671875,22.5 L1.66671875,2.5 C1.66671875,2.03976562 2.03984375,1.66664062 2.50007813,1.66664062 L30.8334375,1.66664062 C31.2936719,1.66664062 31.6667969,2.03976562 31.6667969,2.5 L31.6667969,17.5 L33.3334375,17.5 L33.3334375,2.5 C33.3334375,1.11929688 32.2141406,0 30.8334375,0 Z" id="Shape"></path>
                            <rect id="Rectangle-path" x="10.0000781" y="24.1666406" width="1.66664063" height="5"></rect>
                            <path d="M5.8334375,20 C5.37320313,20 5.00007813,19.626875 5.00007813,19.1666406 L5.00007813,17.5 L3.3334375,17.5 L3.3334375,19.1666406 C3.3334375,20.5473437 4.45273438,21.6666406 5.8334375,21.6666406 L7.50007813,21.6666406 L7.50007813,20 L5.8334375,20 Z" id="Shape"></path>
                            <rect id="Rectangle-path" x="3.3334375" y="14.1666406" width="1.66664063" height="1.66664062"></rect>
                            <path d="M30.4559375,17.6516406 C28.7578125,15.9532031 26.4544531,14.9990625 24.0527344,14.9991406 C19.0522656,14.999375 14.99875,19.0532031 14.9989062,24.0536719 C14.9991406,29.0541406 19.0529687,33.1076562 24.0534375,33.1075 C26.454375,33.1074219 28.756875,32.15375 30.4547656,30.4561719 C33.9909375,26.920625 33.9914844,21.1878906 30.4559375,17.6516406 Z M24.0484375,31.4416406 C19.9684375,31.4402344 16.6620313,28.1316406 16.6634375,24.0516406 C16.6648437,19.9716406 19.9734375,16.6652344 24.0534375,16.6666406 C26.0144531,16.6613281 27.8959375,17.4416406 29.2775781,18.8332812 C30.6617969,20.2190625 31.4390625,22.0978906 31.4384375,24.0566406 C31.4370313,28.1366406 28.1284375,31.4430469 24.0484375,31.4416406 Z" id="Shape"></path>
                            <path d="M39.7559375,36.25 L34.5250781,31.0208594 C34.3688281,30.8646094 34.156875,30.7767188 33.9359375,30.7767188 C33.7149219,30.7767969 33.5030469,30.8646094 33.3467969,31.0208594 L31.0217969,33.3458594 C30.6964844,33.67125 30.6964844,34.19875 31.0217969,34.5242188 L36.2526562,39.7558594 C36.4089062,39.9121875 36.6208594,40 36.8417969,40 C37.063125,39.9992969 37.2751562,39.9105469 37.4309375,39.7533594 L39.7559375,37.4283594 C40.08125,37.1028906 40.08125,36.5753906 39.7559375,36.25 Z M36.8417187,37.9883594 L32.7892187,33.935 L33.9358594,32.7883594 L37.9883594,36.8417187 L36.8417187,37.9883594 Z" id="Shape"></path>
                            <rect id="Rectangle-path" transform="translate(31.319672, 31.319153) rotate(-45.000000) translate(-31.319672, -31.319153) " x="30.48636" y="29.2641729" width="1.66662464" height="4.10996058"></rect>
                            <path d="M24.1667188,18.3333594 L24.1667188,20 C26.4667969,20.0027344 28.330625,21.8666406 28.3333594,24.1666406 L30,24.1666406 C29.9964063,20.9465625 27.386875,18.3370312 24.1667188,18.3333594 Z" id="Shape"></path>
                            <rect id="Rectangle-path" x="8.3334375" y="28.3333594" width="6.66664062" height="1.66664063"></rect>
                            <path d="M12.5000781,3.33335938 C11.119375,3.33335938 10.0000781,4.45265625 10.0000781,5.83335938 C10.0000781,7.2140625 11.119375,8.33335938 12.5000781,8.33335938 C13.8807813,8.33335938 15.0000781,7.2140625 15.0000781,5.83335938 C15.0000781,4.45265625 13.8807813,3.33335938 12.5000781,3.33335938 Z M12.5000781,6.66664062 C12.0398438,6.66664062 11.6667187,6.29351562 11.6667187,5.83328125 C11.6667187,5.37304687 12.0398438,4.99992187 12.5000781,4.99992187 C12.9603125,4.99992187 13.3334375,5.37304687 13.3334375,5.83328125 C13.3334375,6.29359375 12.9603125,6.66664062 12.5000781,6.66664062 Z" id="Shape"></path>
                            <path d="M18.3334375,9.16664062 C16.9527344,9.16664062 15.8334375,10.2859375 15.8334375,11.6666406 C15.8334375,13.0473437 16.9527344,14.1666406 18.3334375,14.1666406 C19.7141406,14.1666406 20.8334375,13.0473437 20.8334375,11.6666406 C20.8334375,10.2859375 19.7141406,9.16664062 18.3334375,9.16664062 Z M18.3334375,12.5 C17.8732031,12.5 17.5000781,12.126875 17.5000781,11.6666406 C17.5000781,11.2064063 17.8732031,10.8332812 18.3334375,10.8332812 C18.7936719,10.8332812 19.1667969,11.2064063 19.1667969,11.6666406 C19.1667188,12.126875 18.7936719,12.5 18.3334375,12.5 Z" id="Shape"></path>
                            <rect id="Rectangle-path" transform="translate(9.583321, 8.750229) rotate(-45.000000) translate(-9.583321, -8.750229) " x="6.63709939" y="7.91691619" width="5.89244349" height="1.66662464"></rect>
                            <rect id="Rectangle-path" transform="translate(15.413063, 8.752352) rotate(-45.000000) translate(-15.413063, -8.752352) " x="14.5797511" y="5.80612985" width="1.66662464" height="5.89244349"></rect>
                            <path d="M24.1667188,3.33335938 C22.7860156,3.33335938 21.6667188,4.45265625 21.6667188,5.83335938 C21.6667188,7.2140625 22.7860156,8.33335938 24.1667188,8.33335938 C25.5474219,8.33335938 26.6667188,7.2140625 26.6667188,5.83335938 C26.6667969,4.45265625 25.5475,3.33335938 24.1667188,3.33335938 Z M24.1667188,6.66664062 C23.7064844,6.66664062 23.3333594,6.29351562 23.3333594,5.83328125 C23.3333594,5.37304687 23.7064844,4.99992187 24.1667188,4.99992187 C24.6269531,4.99992187 25.0000781,5.37304687 25.0000781,5.83328125 C25.0000781,6.29359375 24.6269531,6.66664062 24.1667188,6.66664062 Z" id="Shape"></path>
                            <rect id="Rectangle-path" transform="translate(21.249555, 8.753152) rotate(-45.000000) translate(-21.249555, -8.753152) " x="18.3033337" y="7.91984016" width="5.89244349" height="1.66662464"></rect>
                        </g>
                    </g>
                </g>
            </g>
        </g>
    </g>
</svg>