<?xml version="1.0" encoding="UTF-8"?>
<svg width="18px" height="15px" viewBox="0 0 18 15" version="1.1" xmlns="http://www.w3.org/2000/svg" xmlns:xlink="http://www.w3.org/1999/xlink">
    <!-- Generator: Sketch 50.2 (55047) - http://www.bohemiancoding.com/sketch -->
    <title>twitter</title>
    <desc>Created with Sketch.</desc>
    <defs></defs>
    <g id="Page-1" stroke="none" stroke-width="1" fill="none" fill-rule="evenodd">
        <g id="Home-v2" transform="translate(-1278.000000, -603.000000)" fill="#4630EB" fill-rule="nonzero">
            <g id="social-media" transform="translate(1277.000000, 371.000000)">
                <path d="M18.3333333,233.644444 C17.7111111,233.911111 17,234.133333 16.2888889,234.222222 C17,233.777778 17.5777778,233.111111 17.8444444,232.266667 C17.1777778,232.666667 16.4222222,232.977778 15.5777778,233.111111 C14.9111111,232.444444 14.0222222,232 13,232 C11.0444444,232 9.44444444,233.6 9.44444444,235.555556 C9.44444444,235.822222 9.48888889,236.088889 9.53333333,236.355556 C6.6,236.222222 3.97777778,234.8 2.24444444,232.666667 C1.93333333,233.2 1.75555556,233.777778 1.75555556,234.444444 C1.75555556,235.688889 2.37777778,236.755556 3.31111111,237.377778 C2.73333333,237.377778 2.2,237.2 1.71111111,236.933333 C1.71111111,236.933333 1.71111111,236.977778 1.71111111,236.977778 C1.71111111,238.711111 2.91111111,240.133333 4.55555556,240.444444 C4.24444444,240.533333 3.93333333,240.577778 3.62222222,240.577778 C3.4,240.577778 3.17777778,240.533333 2.95555556,240.533333 C3.4,241.955556 4.73333333,242.977778 6.24444444,242.977778 C5.04444444,243.911111 3.48888889,244.488889 1.84444444,244.488889 C1.57777778,244.488889 1.26666667,244.488889 1,244.444444 C2.55555556,245.466667 4.42222222,246.044444 6.42222222,246.044444 C12.9111111,246.044444 16.5111111,240.666667 16.5111111,235.955556 C16.5111111,235.822222 16.5111111,235.644444 16.5111111,235.511111 C17.2666667,234.977778 17.8444444,234.355556 18.3333333,233.644444 Z" id="twitter"></path>
            </g>
        </g>
    </g>
</svg>