<?xml version="1.0" encoding="UTF-8"?>
<svg width="40px" height="40px" viewBox="0 0 40 40" version="1.1" xmlns="http://www.w3.org/2000/svg" xmlns:xlink="http://www.w3.org/1999/xlink">
    <!-- Generator: Sketch 50.2 (55047) - http://www.bohemiancoding.com/sketch -->
    <title>wireframe</title>
    <desc>Created with Sketch.</desc>
    <defs></defs>
    <g id="Page-1" stroke="none" stroke-width="1" fill="none" fill-rule="evenodd">
        <g id="Home-v2" transform="translate(-700.000000, -3002.000000)" fill="#4630EB" fill-rule="nonzero">
            <g id="How-I-help-the-world" transform="translate(135.000000, 2260.000000)">
                <g id="My-process" transform="translate(0.000000, 704.000000)">
                    <g id="Group-4" transform="translate(60.000000, 38.000000)">
                        <g id="wireframe" transform="translate(505.000000, 0.000000)">
                            <path d="M35.625,3.359375 C35.19375,3.359375 34.84375,3.709375 34.84375,4.140625 C34.84375,4.571875 35.19375,4.921875 35.625,4.921875 C36.05625,4.921875 36.40625,4.571875 36.40625,4.140625 C36.40625,3.709375 36.05625,3.359375 35.625,3.359375 Z" id="Shape"></path>
                            <path d="M30.9375,3.359375 C30.50625,3.359375 30.15625,3.709375 30.15625,4.140625 C30.15625,4.571875 30.50625,4.921875 30.9375,4.921875 C31.36875,4.921875 31.71875,4.571875 31.71875,4.140625 C31.71875,3.709375 31.36875,3.359375 30.9375,3.359375 Z" id="Shape"></path>
                            <path d="M26.25,3.359375 C25.81875,3.359375 25.46875,3.709375 25.46875,4.140625 C25.46875,4.571875 25.81875,4.921875 26.25,4.921875 C26.68125,4.921875 27.03125,4.571875 27.03125,4.140625 C27.03125,3.709375 26.68125,3.359375 26.25,3.359375 Z" id="Shape"></path>
                            <path d="M21.5625,24.140625 C21.13125,24.140625 20.78125,24.490625 20.78125,24.921875 C20.78125,25.353125 21.13125,25.703125 21.5625,25.703125 C21.99375,25.703125 22.34375,25.353125 22.34375,24.921875 C22.34375,24.490625 21.99375,24.140625 21.5625,24.140625 Z" id="Shape"></path>
                            <path d="M21.5625,28.828125 C21.13125,28.828125 20.78125,29.178125 20.78125,29.609375 C20.78125,30.040625 21.13125,30.390625 21.5625,30.390625 C21.99375,30.390625 22.34375,30.040625 22.34375,29.609375 C22.34375,29.178125 21.99375,28.828125 21.5625,28.828125 Z" id="Shape"></path>
                            <path d="M21.5625,33.515625 C21.13125,33.515625 20.78125,33.865625 20.78125,34.296875 C20.78125,34.728125 21.13125,35.078125 21.5625,35.078125 C21.99375,35.078125 22.34375,34.728125 22.34375,34.296875 C22.34375,33.865625 21.99375,33.515625 21.5625,33.515625 Z" id="Shape"></path>
                            <path d="M37.65625,0 L2.34375,0 C1.05140625,0 0,1.05140625 0,2.34375 L0,37.65625 C0,38.9485938 1.05140625,40 2.34375,40 L37.65625,40 C38.9485938,40 40,38.9485938 40,37.65625 L40,2.34375 C40,1.05140625 38.9485938,0 37.65625,0 Z M38.4375,37.65625 C38.4375,38.0870312 38.0870313,38.4375 37.65625,38.4375 L2.34375,38.4375 C1.91296875,38.4375 1.5625,38.0870312 1.5625,37.65625 L1.5625,8.28125 L38.4375,8.28125 L38.4375,37.65625 Z M38.4375,6.71875 L1.5625,6.71875 L1.5625,2.34375 C1.5625,1.91296875 1.91296875,1.5625 2.34375,1.5625 L37.65625,1.5625 C38.0870313,1.5625 38.4375,1.91296875 38.4375,2.34375 L38.4375,6.71875 Z" id="Shape"></path>
                            <path d="M34.0625,11.40625 L5.9375,11.40625 C5.93460937,11.40625 5.931875,11.4066406 5.92898438,11.4066406 C5.91117188,11.4067969 5.89359375,11.4079687 5.87601563,11.4092969 C5.86742188,11.41 5.85875,11.4103906 5.85023438,11.4113281 C5.8340625,11.413125 5.818125,11.4158594 5.8021875,11.4186719 C5.7921875,11.4203906 5.7821875,11.4219531 5.77234375,11.4240625 C5.75882813,11.4270312 5.74554688,11.4307031 5.73226563,11.434375 C5.72054688,11.4375781 5.70867188,11.4405469 5.6971875,11.4442969 C5.68601563,11.4478906 5.67507813,11.4522656 5.6640625,11.4564062 C5.65125,11.46125 5.63828125,11.4658594 5.62578125,11.4713281 C5.615625,11.4757812 5.60585938,11.4808594 5.5959375,11.4857031 C5.58335937,11.4917969 5.57070313,11.4978125 5.55851563,11.5045313 C5.54804687,11.5103125 5.53796875,11.516875 5.5278125,11.5232031 C5.51695313,11.5299219 5.50601562,11.5363281 5.49554688,11.5435156 C5.48398438,11.5514844 5.47289062,11.5602344 5.46179688,11.5688281 C5.4534375,11.5753125 5.44484375,11.5814063 5.43671875,11.5882031 C5.424375,11.5985156 5.41273438,11.6096094 5.40101563,11.6207031 C5.39476563,11.6266406 5.38820313,11.6322656 5.3821875,11.6384375 C5.3703125,11.6504687 5.35914063,11.6632031 5.34796875,11.6760937 C5.34265625,11.6821875 5.33710938,11.6880469 5.33203125,11.6942969 C5.321875,11.7067969 5.31242188,11.7199219 5.30304688,11.733125 C5.29757813,11.7407031 5.291875,11.748125 5.28671875,11.7559375 C5.27890625,11.7676563 5.271875,11.7799219 5.2646875,11.7921875 C5.25867188,11.8024219 5.2525,11.8125 5.24695313,11.8230469 C5.2415625,11.8333594 5.23671875,11.8440625 5.23171875,11.8546094 C5.22546875,11.8678906 5.21914063,11.8811719 5.21359375,11.8948438 C5.20992188,11.9038281 5.206875,11.913125 5.20351563,11.9223438 C5.19789063,11.9379688 5.19242188,11.9536719 5.18773438,11.9697656 C5.186875,11.9727344 5.185625,11.9755469 5.18484375,11.9785156 C5.18296875,11.9852344 5.18203125,11.9919531 5.1803125,11.9986719 C5.17648438,12.0139063 5.17289063,12.0291406 5.17,12.0446875 C5.16765625,12.0572656 5.1659375,12.0698438 5.16421875,12.0824219 C5.16257813,12.0947656 5.16085937,12.1071094 5.15976563,12.1196094 C5.15835937,12.135625 5.15773438,12.1514844 5.15734375,12.1674219 C5.15710937,12.1740625 5.15625,12.1807031 5.15625,12.1875 L5.15625,20 C5.15625,20.4314062 5.50601562,20.78125 5.9375,20.78125 L34.0595312,20.78125 C34.060625,20.78125 34.0617969,20.7814844 34.0628906,20.7814844 C34.0882031,20.7814844 34.1132812,20.7798437 34.1382031,20.7774219 C34.1432031,20.7769531 34.148125,20.7761719 34.1530469,20.7755469 C34.1717969,20.7733594 34.1903125,20.7705469 34.20875,20.7670312 C34.2166406,20.7655469 34.2244531,20.7639062 34.2322656,20.7621094 C34.2475,20.75875 34.2625781,20.7547656 34.2775,20.7504687 C34.2861719,20.7479687 34.2948437,20.745625 34.3033594,20.7428906 C34.3184375,20.7379688 34.3332031,20.7323437 34.3478906,20.7266406 C34.3550781,20.7238281 34.3625,20.7214062 34.3696094,20.7183594 C34.3899219,20.7096875 34.4097656,20.7 34.4292969,20.6896094 C34.4373438,20.6853125 34.445,20.6805469 34.4528125,20.6760156 C34.4653906,20.66875 34.4778906,20.6613281 34.49,20.6533594 C34.4975,20.6484375 34.5048438,20.6432812 34.5121094,20.638125 C34.5245313,20.629375 34.5367188,20.6203125 34.5485938,20.6108594 C34.5546875,20.6059375 34.5608594,20.6010938 34.5667969,20.5960156 C34.5803125,20.5846094 34.5933594,20.5725781 34.6060937,20.5602344 C34.6099219,20.5564844 34.6139062,20.5529687 34.6177344,20.5491406 C34.65125,20.5153125 34.681875,20.4783594 34.7089844,20.4384375 C34.71125,20.4351563 34.7132031,20.4316406 34.7153906,20.4283594 C34.7258594,20.4124219 34.7357813,20.3961719 34.7450781,20.3794531 C34.7492187,20.3720312 34.7529688,20.364375 34.756875,20.3567969 C34.7634375,20.3439844 34.7697656,20.3310156 34.7757031,20.3177344 C34.7800781,20.3079688 34.7842188,20.2980469 34.788125,20.2880469 C34.7926563,20.2764844 34.7969531,20.2647656 34.8010156,20.2528906 C34.8048438,20.2416406 34.8085938,20.2304688 34.8119531,20.2190625 C34.8129687,20.2157031 34.8142187,20.2125 34.8152344,20.2090625 C34.8171094,20.2023438 34.8180469,20.195625 34.8197656,20.1889063 C34.8235938,20.1736719 34.8271875,20.1584375 34.8300781,20.1428906 C34.8324219,20.1303125 34.8341406,20.1177344 34.8358594,20.1051563 C34.8375,20.0928125 34.8392188,20.0804688 34.8403125,20.0679688 C34.8417187,20.0519531 34.8423437,20.0360938 34.8427344,20.0201563 C34.8428906,20.0133594 34.84375,20.0067969 34.84375,19.9999219 L34.84375,12.1875 C34.84375,11.7560937 34.4939844,11.40625 34.0625,11.40625 Z M6.71875,19.21875 L6.71875,13.2153125 L28.3311719,19.21875 L6.71875,19.21875 Z M33.28125,18.9721875 L11.6688281,12.96875 L33.28125,12.96875 L33.28125,18.9721875 Z" id="Shape"></path>
                            <path d="M16.875,24.140625 L5.9375,24.140625 C5.9290625,24.140625 5.9209375,24.1416406 5.91257813,24.141875 C5.89757813,24.1423437 5.88257813,24.1428125 5.86757813,24.1441406 C5.85507813,24.1452344 5.8428125,24.1471094 5.83054688,24.14875 C5.81789063,24.1504688 5.80523438,24.1521875 5.79265625,24.1545313 C5.77929688,24.1570313 5.76625,24.1601563 5.75320313,24.1633594 C5.74171875,24.1661719 5.73023438,24.1689063 5.71882813,24.1721875 C5.70585938,24.1759375 5.693125,24.1803125 5.68039063,24.1847656 C5.66898438,24.18875 5.65765625,24.1927344 5.64640625,24.1971875 C5.63460938,24.2019531 5.62304688,24.2071875 5.61148438,24.2125 C5.5996875,24.2178906 5.58796875,24.2233594 5.57640625,24.229375 C5.5659375,24.2348438 5.55578125,24.2407031 5.545625,24.2466406 C5.53367188,24.2535938 5.521875,24.2605469 5.51023438,24.268125 C5.50070313,24.274375 5.49148438,24.2810938 5.4821875,24.2877344 C5.4709375,24.2958594 5.4596875,24.3039844 5.44882813,24.3127344 C5.43929688,24.3203906 5.43015625,24.3285937 5.42101563,24.3366406 C5.41125,24.3452344 5.40148438,24.35375 5.39210938,24.3628906 C5.381875,24.3728906 5.37234375,24.3833594 5.36265625,24.3939063 C5.3565625,24.4005469 5.35007813,24.4064844 5.34421875,24.4133594 C5.34265625,24.4152344 5.34140625,24.4171875 5.33984375,24.4190625 C5.32992188,24.4308594 5.32070313,24.4433594 5.31148438,24.4557031 C5.30523438,24.4640625 5.29859375,24.4722656 5.29265625,24.4808594 C5.284375,24.4929687 5.27703125,24.505625 5.26945313,24.5182031 C5.26375,24.5276562 5.2575,24.5369531 5.2521875,24.5465625 C5.24585938,24.558125 5.24039063,24.5703125 5.23460938,24.5822656 C5.22929688,24.5932813 5.2234375,24.6042188 5.21867188,24.6153906 C5.21398438,24.6264063 5.21023438,24.6379687 5.20601563,24.6492187 C5.20132813,24.6617969 5.19625,24.6742187 5.1921875,24.6869531 C5.18890625,24.6975 5.18648438,24.7084375 5.18367188,24.7191406 C5.17992188,24.7330469 5.17585938,24.7469531 5.17289063,24.7610156 C5.17078125,24.7710156 5.16960938,24.78125 5.16789063,24.7914062 C5.1653125,24.8067188 5.16257813,24.821875 5.16085938,24.8372656 C5.15984375,24.8470312 5.15960938,24.8569531 5.15890625,24.8667969 C5.1578125,24.8828125 5.15664063,24.8988281 5.15648438,24.9148437 C5.15648438,24.9171875 5.15617188,24.9194531 5.15617188,24.9217969 L5.15617188,34.2967969 C5.15617188,34.7282031 5.5059375,35.0780469 5.93742188,35.0780469 L16.8749219,35.0780469 C16.9025,35.0780469 16.9297656,35.0764844 16.9566406,35.07375 C16.9582812,35.0735938 16.9598437,35.0732031 16.9614844,35.0729688 C16.9869531,35.0701562 17.0121094,35.06625 17.0367969,35.0610156 C17.0417188,35.06 17.0465625,35.0583594 17.0514844,35.0571875 C17.0726562,35.0522656 17.0936719,35.046875 17.1141406,35.0403125 C17.1220312,35.0378125 17.1296875,35.0345313 17.1375,35.0317187 C17.1545312,35.025625 17.1715625,35.019375 17.1880469,35.0121875 C17.1979688,35.0078906 17.2075,35.0028906 17.2172656,34.998125 C17.23125,34.9913281 17.2451562,34.984375 17.2585937,34.9767969 C17.2691406,34.9708594 17.279375,34.964375 17.2896875,34.9578906 C17.3020312,34.9501562 17.3141406,34.9421875 17.3259375,34.9338281 C17.3360156,34.9266406 17.3459375,34.9192187 17.3557031,34.9115625 C17.3675781,34.9022656 17.3791406,34.8925781 17.3904687,34.8825781 C17.3992187,34.8748437 17.4078906,34.8671875 17.4163281,34.8590625 C17.4290625,34.8467969 17.4410937,34.8339062 17.4529687,34.8207812 C17.4578125,34.8153906 17.4632031,34.8107031 17.4679687,34.8051562 C17.4695312,34.8032812 17.4707812,34.8013281 17.4723437,34.7994531 C17.4822656,34.7876562 17.4914844,34.7751563 17.5007031,34.7628125 C17.5069531,34.7544531 17.5135937,34.74625 17.5195312,34.7376563 C17.5278125,34.7255469 17.5351562,34.7128906 17.5427344,34.7003125 C17.5484375,34.6908594 17.5546875,34.6815625 17.56,34.6719531 C17.5663281,34.6603906 17.5717969,34.6482031 17.5775781,34.63625 C17.5828906,34.6252344 17.58875,34.6142969 17.5935156,34.603125 C17.5982031,34.5921094 17.6019531,34.5805469 17.6061719,34.5692969 C17.6108594,34.5567188 17.6159375,34.5442969 17.62,34.5315625 C17.6232812,34.5210156 17.6257031,34.5100781 17.6285156,34.499375 C17.6322656,34.4854688 17.6363281,34.4715625 17.6392969,34.4575 C17.6414062,34.4475 17.6425781,34.4372656 17.6442969,34.4271094 C17.646875,34.4117969 17.6496094,34.3966406 17.6513281,34.38125 C17.6523437,34.3714844 17.6525781,34.3615625 17.6532812,34.3517188 C17.654375,34.3357031 17.6555469,34.3196875 17.6557031,34.3036719 C17.6557031,34.3013281 17.6560156,34.2990625 17.6560156,34.2967188 L17.6560156,24.921875 C17.65625,24.4904688 17.3064844,24.140625 16.875,24.140625 Z M6.71875,33.515625 L6.71875,26.6204688 L14.7630469,33.515625 L6.71875,33.515625 Z M16.09375,32.5982812 L8.04945313,25.703125 L16.09375,25.703125 L16.09375,32.5982812 Z" id="Shape"></path>
                            <path d="M34.0625,24.140625 L24.6875,24.140625 C24.2560156,24.140625 23.90625,24.4904688 23.90625,24.921875 C23.90625,25.3532812 24.2560156,25.703125 24.6875,25.703125 L34.0625,25.703125 C34.4939844,25.703125 34.84375,25.3532812 34.84375,24.921875 C34.84375,24.4904688 34.4939844,24.140625 34.0625,24.140625 Z" id="Shape"></path>
                            <path d="M34.0625,28.828125 L24.6875,28.828125 C24.2560156,28.828125 23.90625,29.1779688 23.90625,29.609375 C23.90625,30.0407812 24.2560156,30.390625 24.6875,30.390625 L34.0625,30.390625 C34.4939844,30.390625 34.84375,30.0407812 34.84375,29.609375 C34.84375,29.1779688 34.4939844,28.828125 34.0625,28.828125 Z" id="Shape"></path>
                            <path d="M34.0625,33.515625 L24.6875,33.515625 C24.2560156,33.515625 23.90625,33.8654687 23.90625,34.296875 C23.90625,34.7282813 24.2560156,35.078125 24.6875,35.078125 L34.0625,35.078125 C34.4939844,35.078125 34.84375,34.7282813 34.84375,34.296875 C34.84375,33.8654687 34.4939844,33.515625 34.0625,33.515625 Z" id="Shape"></path>
                        </g>
                    </g>
                </g>
            </g>
        </g>
    </g>
</svg>